<svg xmlns="http://www.w3.org/2000/svg" viewBox="0 0 16 16">
<path d="M15 14h-14q-0.406 0-0.703-0.297t-0.297-0.703v-10q0-0.422 0.297-0.711t0.703-0.289h14q0.406 0 0.703 0.289t0.297 0.711v10q0 0.406-0.297 0.703t-0.703 0.297zM2.5 12h4q0.203 0 0.352-0.148t0.148-0.352-0.148-0.352-0.352-0.148h-4q-0.203 0-0.352 0.148t-0.148 0.352 0.148 0.352 0.352 0.148zM7.5 7h-5q-0.203 0-0.352 0.148t-0.148 0.352 0.148 0.352 0.352 0.148h5q0.203 0 0.352-0.148t0.148-0.352-0.148-0.352-0.352-0.148zM7.5 9h-5q-0.203 0-0.352 0.148t-0.148 0.352 0.148 0.352 0.352 0.148h5q0.203 0 0.352-0.148t0.148-0.352-0.148-0.352-0.352-0.148zM14 4.5q0-0.203-0.148-0.352t-0.352-0.148h-3q-0.203 0-0.352 0.148t-0.148 0.352v3q0 0.203 0.148 0.352t0.352 0.148h3q0.203 0 0.352-0.148t0.148-0.352v-3z"/>
</svg>