<svg xmlns="http://www.w3.org/2000/svg" viewBox="0 0 16 16">
<path d="M2,2v2h1c0.27,0,0.51,0.1,0.7,0.3S4,4.73,4,5.01s-0.1,0.51-0.3,0.7S3.27,6,3,6H2v2h1c0.27,0,0.51,0.1,0.7,0.29 S4,8.72,4,8.99S3.9,9.51,3.7,9.7S3.27,10,3,10H2v2h1c0.27,0,0.51,0.1,0.7,0.3S4,12.73,4,13.01s-0.1,0.51-0.3,0.7S3.27,14,3,14H2v1 c0,0.27-0.1,0.51-0.3,0.7S1.27,16,0.99,16s-0.51-0.1-0.7-0.3S0,15.27,0,15V1c0-0.27,0.1-0.51,0.29-0.7S0.72,0,1,0h2 c0.27,0,0.51,0.1,0.7,0.3S4,0.73,4,1.01s-0.1,0.51-0.3,0.7S3.27,2,3,2H2z M7,8H6C5.72,8,5.48,8.1,5.29,8.29S5,8.72,5,9v6 c0,0.27,0.1,0.51,0.29,0.7S5.72,16,6,16h1c0.27,0,0.51-0.1,0.7-0.3S8,15.27,8,15V9c0-0.28-0.1-0.52-0.3-0.71S7.27,8,7,8z M15.7,0.3 C15.51,0.1,15.27,0,15,0h-1c-0.28,0-0.52,0.1-0.71,0.3S13,0.73,13,1v14c0,0.27,0.1,0.51,0.29,0.7S13.72,16,14,16h1 c0.27,0,0.51-0.1,0.7-0.3S16,15.27,16,15V1C16,0.73,15.9,0.49,15.7,0.3z M11,4h-1C9.72,4,9.48,4.1,9.29,4.3S9,4.73,9,5v10 c0,0.27,0.1,0.51,0.29,0.7S9.72,16,10,16h1c0.27,0,0.51-0.1,0.7-0.3S12,15.27,12,15V5c0-0.27-0.1-0.51-0.3-0.7S11.27,4,11,4z"/>
</svg>