<svg xmlns="http://www.w3.org/2000/svg" viewBox="0 0 16 16">
<path d="M10 16q-0.5 0-0.797-0.078t-0.391-0.172-0.289-0.172-0.523-0.078-0.523 0.078-0.289 0.172-0.391 0.172-0.797 0.078q-0.594 0-1.391-0.453t-1.594-1.258-1.477-1.797-1.109-2.188-0.43-2.305q0-1.063 0.305-1.914t0.797-1.398 1.172-0.922 1.383-0.547 1.469-0.203q-0.953-0.563-1.219-0.719-0.609-0.313-1.086-0.867t-0.648-0.961l-0.172-0.391q0.078-0.016 0.195-0.031t0.484-0.031 0.711 0.008 0.805 0.141 0.852 0.32q0.703 0.375 1.633 1.18t1.445 1.492q0.203-1.656 0.875-2.656 0.031-0.047 0.102-0.164t0.109-0.172 0.117-0.109 0.172-0.055q0.203 0 0.352 0.148t0.148 0.352q0 0.297-0.797 2.891 0.547-0.391 1.297-0.391 0.797 0 1.539 0.141t1.477 0.508 1.273 0.914 0.875 1.438 0.336 2-0.43 2.305-1.109 2.188-1.477 1.797-1.594 1.258-1.391 0.453zM5 13q0-0.5-0.5-1.5t-0.5-1.5q0-0.547 0.5-1.625t0.5-1.375v-0.094q0-0.375-0.008-0.57t-0.055-0.5-0.148-0.453-0.297-0.266-0.492-0.117q-0.484 0-0.953 0.563t-0.758 1.367-0.289 1.523q0 0.938 0.398 1.992t0.922 1.805 1 1.25 0.68 0.5q0.219 0 0.219-0.086t-0.109-0.367-0.109-0.547z"/>
</svg>