<svg xmlns="http://www.w3.org/2000/svg" viewBox="0 0 16 16">
<path d="M7.297 6.797q0.281-0.297 0.703-0.297t0.703 0.297l7 7.047q0.297 0.297 0.297 0.719t-0.297 0.719l-0.406 0.422q-0.297 0.297-0.711 0.297t-0.711-0.297l-5.875-5.922-5.875 5.922q-0.297 0.297-0.711 0.297t-0.711-0.297l-0.406-0.422q-0.297-0.297-0.297-0.719t0.297-0.719zM15.297 9.219q-0.297 0.297-0.711 0.297t-0.711-0.297l-5.875-5.938-5.875 5.938q-0.297 0.297-0.711 0.297t-0.711-0.297l-0.406-0.438q-0.297-0.297-0.297-0.711t0.297-0.711l7-7.063q0.281-0.297 0.703-0.297t0.703 0.297l7 7.063q0.297 0.297 0.297 0.711t-0.297 0.711z"/>
</svg>