<svg xmlns="http://www.w3.org/2000/svg" viewBox="0 0 53 53">
    <path fill="#E7ECED" d="M53.7,52.3c-0.6-0.6-10.8-7.3-11-7.4c-2.1-1-8.4-4.2-8.5-4.2c-0.8-0.4-1.3-1.2-1.3-2v-2.9c0.2-0.2,0.4-0.5,0.6-0.8 c1.1-1.6,2-3.3,2.6-5.1c1.3-0.6,2.1-1.8,2.1-3.3v-3.5c0-0.8-0.3-1.7-0.9-2.4v-4.7c0.1-0.5,0.2-3.4-1.9-5.9C33.7,8.1,30.7,7,26.6,7 s-7.1,1.1-8.9,3.2c-2.1,2.4-1.9,5.3-1.9,5.9v4.8c-0.6,0.6-0.9,1.5-0.9,2.4v3.5c0,1,0.5,2.1,1.3,2.8c0.8,3.1,2.5,5.6,3.1,6.4v2.9 c0,0.7-0.5,1.5-1.2,1.9c0,0-5.9,3.2-7.9,4.3l0,0c-1.3,0.7-10.7,7.1-10.8,7.2L-3,54h58.4L53.7,52.3z"/>
    <path fill="#556080" d="M0,53c0.4-0.3,10.2-6.9,10.7-7.1c2-1.1,7.9-4.3,7.9-4.3c1-0.6,1.7-1.7,1.7-2.8v-3.2c0,0-2.3-2.8-3.2-6.6 c-0.7-0.5-1.2-1.3-1.2-2.2v-3.5c0-0.8,0.3-1.5,0.9-2V16c0,0-1.1-8,9.8-8s9.8,8,9.8,8v5.1c0.5,0.5,0.9,1.2,0.9,2v3.5 c0,1.2-0.8,2.2-1.9,2.5c-0.6,1.9-1.5,3.7-2.6,5.3c-0.3,0.4-0.6,0.8-0.8,1v3.3c0,1.2,0.7,2.3,1.8,2.9c0,0,6.4,3.2,8.5,4.2 c0.5,0.3,10.3,6.8,10.7,7.2V0H0V53z"/>
</svg>