<svg xmlns="http://www.w3.org/2000/svg" viewBox="0 0 16 16">
<path d="M15.844 15.047l-0.797 0.797q-0.156 0.156-0.383 0.156t-0.398-0.156l-9.016-9.031q-0.25 0.578-0.25 1.188 0 0.922 0.531 1.688-0.75 0.313-1.531 0.313-1.656 0-2.828-1.172t-1.172-2.828q0-0.766 0.313-1.516 0.766 0.516 1.688 0.516 0.625 0 1.188-0.25l-2.031-2.016q-0.156-0.172-0.156-0.398t0.156-0.383l0.797-0.797q0.156-0.156 0.383-0.156t0.398 0.156l2.016 2.031q0.25-0.578 0.25-1.188 0-0.922-0.516-1.688 0.734-0.313 1.516-0.313 1.656 0 2.828 1.172t1.172 2.828q0 0.781-0.313 1.531-0.766-0.531-1.688-0.531-0.609 0-1.188 0.25l9.031 9.016q0.156 0.172 0.156 0.398t-0.156 0.383z"/>
</svg>