<svg xmlns="http://www.w3.org/2000/svg" viewBox="0 0 16 16">
<path d="M14.1 7.9c2.5 0 0.7-2.2-0.5-2.7 0 0 1.5-3.6 1.4-3.7 0 0-1.8 3.5-1.8 3.5-0.9-0.4-1.8-0.6-2.8-0.7-1.2-2.3-2.5-3.5-3.4-3.3-1 0.2-1.6 0.9-1.6 2.6-1.5-1.6-2.3 0.6-2.2 2-1.7 0.1-3.1 1.2-3.1 1.2s2.1-0.8 3.2-0.8c0.1 1.1 0.3 2 0.8 3-1.9 2.7-2.6 6.6 1.9 4.6-0.7 1.7 0.8 1.8 2.6 0.8l2.2 2.6-1.7-2.9c0.9-0.6 1.5-1.3 2.1-2.2 5.2 0.3 6.2-1.6 2.9-4v0zM9.4 4.3c-1.5 0-2.9 0.7-2.9 0.7 0.1-2.6 1.4-3.2 2.9-0.7zM5.4 5.6h-1.2c-0.2-1 0.4-1.9 1.1-1.3-0.1 0.2 0 1 0.1 1.3zM4.5 9.7c1.2 2 1.7 2.1 1.7 2.1-2.2 1-2.9 0.2-1.7-2.1zM7.6 12.5l0.7 1.1c-1.6 0.8-2.6 0-0.7-1.1zM8.7 13.3c-0.2-0.4-0.3-0.5-0.4-0.9 0.5-0.2 1.4-0.6 1.4-0.6s-1.1 0.2-1.4 0.2c1-0.8 3.5-3.7 3.5-3.7l-0.7-0.3c-1.3 1.4-2.5 2.7-4.2 3.7-2.2-2.5-2.5-3.8-2.8-5.6 0 0 0.8 0.1 1.1 0.1-0.1 0.5-0.2 1.6-0.2 1.6s0.2-1 0.6-1.4c0.3 1.7 1.4 4.8 1.4 4.8l0.6-0.4c-0.5-1.8-1-3.6-1-5.5 2.3-0.9 4.5-0.3 6.1 0.5-0.2 0.3-0.7 0.9-0.7 0.9s-0.7-0.8-1.3-1.1c0.4 0.4 0.8 0.9 1 1.3-1.6-0.5-4.9-1.1-4.9-1.1v0.7c1.9 0.4 3.6 1 5.3 1.9-0.7 2.2-1.6 3.9-3.4 4.9zM11.5 11.2c0.5-0.9 0.9-1.9 1-2.8 1.8 1.4 2.3 2.7-1 2.8zM13.7 7.7l-1.2-0.5c0 0 0.5-0.7 0.7-1.1 1.3 1 1 1.5 0.5 1.6v0z"/>
</svg>