<svg xmlns="http://www.w3.org/2000/svg" viewBox="0 0 16 16">
<path d="M14.86 2.953l-0.734 5.188q0.39 0.172 0.633 0.539t0.242 0.82q0 0.625-0.437 1.062t-1.062 0.437q-0.453 0-0.844-0.25l-4.765 3.204q0.109 0.266 0.109 0.547 0 0.625-0.437 1.062t-1.062 0.437-1.062-0.437-0.437-1.062q0-0.281 0.109-0.547l-3.062-3.062q-0.266 0.109-0.547 0.109-0.625 0-1.062-0.437t-0.437-1.062 0.437-1.062 1.062-0.437q0.344 0 0.672 0.156l2.907-3.188q-0.078-0.25-0.078-0.468 0-0.625 0.437-1.062t1.062-0.437q0.687 0 1.14 0.547l5.375-2.156q0.031-0.578 0.461-0.984t1.023-0.406q0.625 0 1.062 0.437t0.437 1.062q0 0.516-0.32 0.922t-0.82 0.532zM5.703 5.765l-2.844 3.109q0.14 0.313 0.14 0.625 0 0.375-0.204 0.734l2.969 2.969q0.359-0.204 0.734-0.204 0.39 0 0.75 0.204l4.828-3.25q-0.078-0.235-0.078-0.453 0-0.172 0.047-0.359l-4.547-3.532q-0.437 0.39-1 0.39-0.422 0-0.796-0.235zM7.984 4.734l4.61 3.578q0.235-0.188 0.547-0.266l0.734-5.188q-0.39-0.188-0.641-0.547l-5.25 2.093q0 0.016 0.008 0.047t0.008 0.047q0 0.078-0.016 0.235z"/>
</svg>