<svg xmlns="http://www.w3.org/2000/svg" viewBox="0 0 16 16">
<path d="M14 12q0.219 0 0.438 0.219l1.563 1.563v0.219h-1.5q-0.203 0-0.352 0.148t-0.148 0.352v1.5h-0.219l-1.563-1.563q-0.219-0.219-0.219-0.438v-1.313l-4-4-7.094 7.078q-0.141 0.234-0.406 0.234-0.203 0-0.352-0.148t-0.148-0.352v-0.5q0-2.922 1.070-5.555t2.992-4.695l-2.906-2.906-0.656 0.656q-0.203 0-0.352-0.148t-0.148-0.352v-1.5q0-0.203 0.148-0.352t0.352-0.148h1.5q0.203 0 0.352 0.148t0.148 0.352l-0.672 0.672 2.922 2.906q2.047-1.938 4.688-3.008t5.563-1.070h0.5q0.203 0 0.352 0.148t0.148 0.352q0 0.266-0.234 0.406l-7.094 7.094 4 4h1.328zM1.047 14.281l6.266-6.281-1.891-1.891q-1.828 1.906-3.008 4.055t-1.367 4.117zM14.281 1.047q-1.969 0.188-4.117 1.367t-4.070 3.008l1.906 1.906z"/>
</svg>