<svg xmlns="http://www.w3.org/2000/svg" viewBox="0 0 16 16">
<path d="M14.5 9q-0.188 0-0.734-0.25t-1.188-0.5-1.078-0.25q-0.406 0-0.906 0.258t-1 0.625-1.039 0.734-1.211 0.625-1.344 0.258q-0.813 0-1.406-0.398t-0.594-1.102q0-0.516 0.336-0.898t0.813-0.586 1.133-0.32 1.172-0.148 1.047-0.031v-0.016q-0.203 0-0.352-0.148t-0.148-0.352 0.148-0.352 0.352-0.148q-2.844 0-4.266 0.984-0.047 0.031-0.344 0.242t-0.375 0.258-0.352 0.188-0.469 0.188-0.516 0.094-0.68 0.047q-0.703 0-1.102-0.594t-0.398-1.406q0-1.094 0.688-2.047t1.813-1.586 2.563-1 2.938-0.367q2.172 0 4.016 0.805t2.914 2.188 1.070 3.008q0 0.703-0.406 1.352t-1.094 0.648zM7.219 11l1.781-0.5q0-0.391 1.016-0.945t1.484-0.555q1.031 0 1.766 0.516t0.734 0.984q0 0.391-1.016 0.945t-1.484 0.555q-0.344 0-0.422 0.75t-0.078 3.25h-1q0-0.781-0.922-2.203t-1.703-1.797q-0.188-0.094-0.305-0.336t-0.078-0.453 0.227-0.211z"/>
</svg>