<svg xmlns="http://www.w3.org/2000/svg" viewBox="0 0 16 16">
<path d="M15 16h-14q-0.406 0-0.703-0.297t-0.297-0.703v-6h6v1q0 0.406 0.297 0.703t0.703 0.297h2q0.422 0 0.711-0.297t0.289-0.703v-1h6v6q0 0.422-0.297 0.711t-0.703 0.289zM9 8.992q0 0.414-0.289 0.711t-0.703 0.297-0.711-0.297-0.297-0.711 0.297-0.703 0.711-0.289 0.703 0.289 0.289 0.703zM9 7h-2q-0.406 0-0.703 0.289t-0.297 0.711h-6v-3q0-0.422 0.289-0.711t0.711-0.289h3v-1q0-1.25 0.875-2.125t2.125-0.875h2q1.25 0 2.125 0.875t0.875 2.125v1h3q0.406 0 0.703 0.289t0.297 0.711v3h-6q0-0.422-0.289-0.711t-0.711-0.289zM10 3q0-0.422-0.289-0.711t-0.711-0.289h-2q-0.406 0-0.703 0.289t-0.297 0.711v1h4v-1z"/>
</svg>