<svg xmlns="http://www.w3.org/2000/svg" viewBox="0 0 16 16">
<path d="M14.992 9q-0.414 0-0.703-0.289t-0.289-0.703 0.289-0.711 0.703-0.297 0.711 0.297 0.297 0.711-0.297 0.703-0.711 0.289zM13.008 4q-0.414 0-0.711-0.289t-0.297-0.703 0.297-0.711 0.711-0.297 0.703 0.297 0.289 0.711-0.289 0.703-0.703 0.289zM8 13q-1.359 0-2.508-0.672t-1.82-1.82-0.672-2.508 0.672-2.508 1.82-1.82 2.508-0.672 2.508 0.672 1.82 1.82 0.672 2.508-0.672 2.508-1.82 1.82-2.508 0.672zM8 5v6q1.25 0 2.125-0.875t0.875-2.117-0.875-2.125-2.125-0.883zM8 2q-0.406 0-0.703-0.289t-0.297-0.703 0.297-0.711 0.703-0.297 0.703 0.297 0.297 0.711-0.297 0.703-0.703 0.289zM2.992 4q-0.414 0-0.703-0.289t-0.289-0.703 0.289-0.711 0.703-0.297 0.711 0.297 0.297 0.711-0.297 0.703-0.711 0.289zM1.008 9q-0.414 0-0.711-0.289t-0.297-0.703 0.297-0.711 0.711-0.297 0.703 0.297 0.289 0.711-0.289 0.703-0.703 0.289zM2.992 12q0.414 0 0.711 0.297t0.297 0.711-0.297 0.703-0.711 0.289-0.703-0.289-0.289-0.703 0.289-0.711 0.703-0.297zM7.992 14q0.414 0 0.711 0.297t0.297 0.711-0.289 0.703-0.711 0.289-0.711-0.289-0.289-0.703 0.289-0.711 0.703-0.297zM13 12q0.422 0 0.711 0.297t0.289 0.711-0.297 0.703-0.703 0.289-0.703-0.289-0.297-0.703 0.289-0.711 0.711-0.297z"/>
</svg>