<svg xmlns="http://www.w3.org/2000/svg" viewBox="0 0 17 16">
<path d="M7 7h1v1h-1v-1zM0 4v9h17v-9h-17zM3 12h-2v-2h1v1h1v1zM3 6h-1v1h-1v-2h2v1zM10.5 8c0.276 0 0.5 0.224 0.5 0.5v2c0 0.276-0.224 0.5-0.5 0.5h-1.5v0.5c0 0.276-0.224 0.5-0.5 0.5s-0.5-0.224-0.5-0.5v-0.5h-1.5c-0.276 0-0.5-0.224-0.5-0.5s0.224-0.5 0.5-0.5h1.5v-1h-1.5c-0.276 0-0.5-0.224-0.5-0.5v-2c0-0.276 0.224-0.5 0.5-0.5h1.5v-0.5c0-0.276 0.224-0.5 0.5-0.5s0.5 0.224 0.5 0.5v0.5h1.5c0.276 0 0.5 0.224 0.5 0.5s-0.224 0.5-0.5 0.5h-1.5v1h1.5zM16 12h-2v-1h1v-1h1v2zM16 7h-1v-1h-1v-1h2v2zM9 9h1v1h-1v-1z"/>
</svg>