<svg xmlns="http://www.w3.org/2000/svg" viewBox="0 0 16 16">
<path d="M8 16q-1.438 0-2.742-0.539t-2.242-1.414-1.633-1.938-1.039-2.125-0.344-1.984q0-1.078 1.047-2.219 0.047-1.141 0.586-3.461t0.867-2.32q0.297 0 1.516 1.063t2.188 2.094q0.922-0.156 1.797-0.156t1.797 0.156q0.969-1.031 2.188-2.094t1.516-1.063q0.328 0 0.867 2.32t0.586 3.461q1.047 1.141 1.047 2.219 0 0.922-0.344 1.984t-1.039 2.125-1.633 1.938-2.242 1.414-2.742 0.539zM5 6q-0.828 0-1.414 0.586t-0.586 1.414 0.586 1.414 1.414 0.586 1.414-0.586 0.586-1.414-0.586-1.414-1.414-0.586zM11 6q-0.828 0-1.414 0.586t-0.586 1.414 0.586 1.414 1.414 0.586 1.414-0.586 0.586-1.414-0.586-1.414-1.414-0.586zM12 8q0 0.828-0.289 1.414t-0.703 0.586-0.711-0.586-0.297-1.414 0.297-1.414 0.711-0.586 0.703 0.586 0.289 1.414zM6 8q0 0.828-0.297 1.414t-0.711 0.586-0.703-0.586-0.289-1.414 0.289-1.414 0.703-0.586 0.711 0.586 0.297 1.414z"/>
</svg>