<svg xmlns="http://www.w3.org/2000/svg" viewBox="0 0 16 16">
<path d="M10.2 2.2l-0.2 0.3c2.3 0.7 3.4 1.7 3.4 1.7-1.4-0.8-2.8-1.2-4.1-1.3-1-0.1-1.9-0.1-2.8 0-0.1 0-0.2 0-0.2 0-0.5 0.1-1.7 0.3-3.1 0.9-0.5 0.2-0.8 0.4-0.8 0.4s1.1-1.1 3.6-1.8l-0.2-0.2c0 0-1.9 0-3.8 1.4 0 0-2 3.6-2 8 0 0 1.2 2 4.2 2.1 0 0 0.5-0.6 0.9-1.1-1.7-0.5-2.4-1.6-2.4-1.6s0.1 0.1 0.4 0.2c0 0 0 0 0.1 0 0 0 0.1 0 0.1 0.1 0.3 0.2 0.7 0.3 1 0.5 0.6 0.2 1.2 0.4 2 0.6 1 0.2 2.2 0.3 3.5 0 0.6-0.1 1.3-0.3 2-0.6 0.5-0.2 1-0.4 1.6-0.8 0 0-0.7 1.1-2.5 1.6 0.4 0.5 0.9 1.1 0.9 1.1 3-0.1 4.2-2.1 4.2-2.1 0-4.4-2-8-2-8-1.9-1.4-3.8-1.4-3.8-1.4zM5.4 10.4c-0.7 0-1.4-0.7-1.4-1.5s0.6-1.5 1.4-1.5c0.8 0 1.4 0.7 1.4 1.5s-0.6 1.5-1.4 1.5zM10.4 10.4c-0.7 0-1.4-0.7-1.4-1.5s0.6-1.5 1.4-1.5c0.8 0 1.4 0.7 1.4 1.5s-0.6 1.5-1.4 1.5z"/>
</svg>