<svg xmlns="http://www.w3.org/2000/svg" viewBox="0 0 16 16">
<path d="M14 10h-12q-0.828 0-1.414-0.586t-0.586-1.414 0.586-1.414 1.414-0.586h12q0.828 0 1.414 0.586t0.586 1.414-0.586 1.414-1.414 0.586zM14 7h-7.5q-0.203 0-0.352 0.148t-0.148 0.352v1q0 0.203 0.148 0.352t0.352 0.148h7.5q0.406 0 0.703-0.289t0.297-0.703-0.297-0.711-0.703-0.297zM14 4h-12q-0.828 0-1.414-0.586t-0.586-1.414 0.586-1.414 1.414-0.586h12q0.828 0 1.414 0.586t0.586 1.414-0.586 1.414-1.414 0.586zM14 1h-1.5q-0.203 0-0.352 0.148t-0.148 0.352v1q0 0.219 0.148 0.359t0.352 0.141h1.5q0.406 0 0.703-0.289t0.297-0.703-0.297-0.711-0.703-0.297zM2 12h12q0.828 0 1.414 0.586t0.586 1.414-0.586 1.414-1.414 0.586h-12q-0.828 0-1.414-0.586t-0.586-1.414 0.586-1.414 1.414-0.586zM9 14.5q0 0.203 0.148 0.352t0.352 0.148h4.5q0.406 0 0.703-0.289t0.297-0.703-0.297-0.711-0.703-0.297h-4.5q-0.203 0-0.352 0.148t-0.148 0.352v1z"/>
</svg>