<svg xmlns="http://www.w3.org/2000/svg" viewBox="0 0 16 16">
<path d="M7,13H4.5C4.22,13,4,12.78,4,12.5S4.22,12,4.5,12H7c0.28,0,0.5,0.22,0.5,0.5S7.28,13,7,13z M9.5,11h-5 C4.22,11,4,10.78,4,10.5S4.22,10,4.5,10h5c0.28,0,0.5,0.22,0.5,0.5S9.78,11,9.5,11z M11.5,9h-7C4.22,9,4,8.78,4,8.5S4.22,8,4.5,8h7 C11.78,8,12,8.22,12,8.5S11.78,9,11.5,9z M5,3.5C5,2.67,5.67,2,6.5,2S8,2.67,8,3.5S7.33,5,6.5,5S5,4.33,5,3.5z M7.5,5h-2 C4.68,5,4,5.45,4,6v1h5V6C9,5.45,8.32,5,7.5,5z M11,16l-3-3.5l1.27-1.27L11,12.97L15,9l1,1L11,16z M14.34,3.58 c-0.35-0.47-0.83-1.03-1.36-1.56s-1.09-1.01-1.56-1.36C10.62,0.07,10.22,0,10,0H2.25C1.56,0,1,0.56,1,1.25v13.5 C1,15.44,1.56,16,2.25,16H8.5C8.78,16,9,15.78,9,15.5S8.78,15,8.5,15H2.25C2.12,15,2,14.89,2,14.75V1.25C2,1.12,2.12,1,2.25,1 C2.25,1,10,1,10,1v3.5C10,4.78,10.22,5,10.5,5H14v2.5C14,7.78,14.22,8,14.5,8S15,7.78,15,7.5V5C15,4.78,14.93,4.39,14.34,3.58z  M11,4V1.6c0.36,0.28,0.79,0.65,1.27,1.13S13.13,3.64,13.4,4H11L11,4z"/>
</svg>