<svg xmlns="http://www.w3.org/2000/svg" viewBox="0 0 16 16">
<path d="M2.987 4.237c-1.9 1.188-2.987 2.875-2.987 2.875s0.287-3.538 2.987-5.6c1.087-0.825 2.55-1.512 4.537-1.512 0.75 0 2.3 0.125 3.712 1 1.412 0.863 1.975 1.588 2.6 2.65 0.275 0.463 0.5 1.050 0.637 1.612 0.262 1.063 0.287 2.337 0.287 2.337v1.675h-10.037c0 0-0.25 3.375 4.375 3.375 1.6 0 2.162-0.25 2.7-0.412 0.825-0.25 1.625-0.787 1.625-0.787v3.375c0 0-1.887 1.162-4.75 1.162-0.813 0-1.65-0.075-2.475-0.338-0.713-0.238-2.212-0.863-3.212-2.325-0.35-0.525-0.738-1.213-0.925-1.887-0.2-0.725-0.2-1.438-0.2-1.825 0-1.45 0.5-2.85 1.363-3.85 1.125-1.3 2.538-1.875 2.538-1.875s-0.463 0.537-0.75 1.213c-0.287 0.662-0.362 1.338-0.362 1.338h5.675c0 0 0.325-3.388-3.213-3.388-1.325 0.013-2.975 0.475-4.125 1.188z"/>
</svg>