<svg xmlns="http://www.w3.org/2000/svg" viewBox="0 0 16 16">
<path d="M3.1 13.4c0 0 0.1 0.1 0.1 0.1 0.1 0.1 0.1 0.1 0.2 0.2 0 0 0.1 0.1 0.2 0.1 0.1 0.1 0.1 0.1 0.2 0.1s0.2 0 0.2 0h4c0.1 0 0.1 0 0.2 0s0.2-0.1 0.2-0.1 0.1-0.1 0.2-0.1c0 0 0.1-0.1 0.2-0.2s0.1-0.1 0.1-0.1l6.8-6.8c0.2-0.2 0.3-0.4 0.3-0.7s-0.1-0.5-0.3-0.6l-4-4c-0.2-0.2-0.4-0.3-0.6-0.3-0.3 0-0.5 0.1-0.7 0.3l-9.1 9.2c-0.2 0.2-0.3 0.4-0.3 0.6 0 0.3 0.1 0.5 0.3 0.7 0.1 0.1 0.3 0.3 0.8 0.8 0.5 0.3 0.8 0.6 1 0.8v0zM7.5 6.8l2.7 2.7-2.5 2.5h-3.4l-1-1 4.2-4.2z"/>
</svg>