<svg xmlns="http://www.w3.org/2000/svg" viewBox="0 0 16 16">
<path d="M13.844 3.656q0.516-0.297 0.93-0.461t0.57-0.18l0.156-0.016q-1.406 1.438-2.672 2.453 0.828-0.203 1.625-0.313t1.172-0.125l0.375-0.016q-2.703 1.766-4 3-1.609 1.531-2.758 3t-1.461 2.297q-0.406 1.188-1.445 1.945t-2.336 0.758q-1.656 0-2.828-1.172t-1.172-2.828q0-1.078 0.531-1.992t1.422-1.445q0.594-0.297 1.289-0.938t1.242-1.313 1.031-1.352 0.719-1.047 0.266-0.414q-0.016 0.578-0.172 1.5 0.469 0 1.125-0.516t1.25-1.25 1.125-1.469 0.859-1.25l0.313-0.516q0 0.344-0.016 0.867t-0.141 1.609-0.344 1.523q0.672-0.891 1.297-1.891t0.906-1.547l0.297-0.563q0.063 0.109 0.125 0.305t0.078 0.719-0.203 0.977q0.594-0.422 1.344-0.922t1.203-0.797l0.453-0.281q-0.984 1.641-2.156 3.656zM4 9q-1.25 0-2.125 0.875t-0.875 2.125 0.875 2.125 2.125 0.875 2.125-0.875 0.875-2.125-0.875-2.125-2.125-0.875z"/>
</svg>