<svg xmlns="http://www.w3.org/2000/svg" viewBox="0 0 16 16">
<path d="M7.5 15q-1.766 0-3.266-0.867t-2.367-2.367-0.867-3.266q0-0.688 0.203-1.242t0.5-0.992 0.594-0.953 0.5-1.359 0.203-1.953q0 0.156 0.164 0.305t0.391 0.297 0.5 0.523 0.445 0.875q0.25 0.766 0.813 1.383t1.188 0.617q0.813 0 1.383-0.922t0.844-2.484 0.273-3.594q0.234 0.688 0.719 1.438t1.023 1.359 1.133 1.391 1.055 1.523 0.766 1.734 0.305 2.055q0 1.766-0.867 3.266t-2.367 2.367-3.266 0.867zM9.5 5q-0.797 2.125-1.5 3-0.297 0.375-0.742 0.672t-0.813 0.477-0.711 0.406-0.539 0.578-0.195 0.867q0 0.953 0.742 1.477t1.758 0.523q1.5 0 2.5-0.789t1-2.148q0-1.047-0.172-1.805t-0.391-1.125-0.5-0.938-0.438-1.195z"/>
</svg>