<svg xmlns="http://www.w3.org/2000/svg" viewBox="0 0 16 16">
<path d="M15.008 5q-0.414 0-0.711-0.297t-0.297-0.703q0-0.828-0.586-1.414t-1.414-0.586h-1q-0.406 0-0.703 0.289t-0.297 0.711v10q0 0.406 0.297 0.703t0.711 0.297 0.703 0.289 0.289 0.703-0.289 0.711-0.711 0.297h-6q-0.406 0-0.703-0.289t-0.297-0.711 0.297-0.711 0.711-0.289 0.703-0.297 0.289-0.703v-10q0-0.422-0.289-0.711t-0.711-0.289h-1q-0.828 0-1.414 0.586t-0.586 1.414q0 0.406-0.289 0.703t-0.703 0.297-0.711-0.297-0.297-0.703v-3q0-0.406 0.297-0.703t0.703-0.297h14q0.406 0 0.703 0.297t0.297 0.703v3q0 0.422-0.289 0.711t-0.703 0.289z"/>
</svg>