<svg xmlns="http://www.w3.org/2000/svg" viewBox="0 0 16 16">
<path d="M14.344 15.797q-0.141 0.203-0.336 0.203t-0.336-0.203l-1.484-1.797h-0.359l-1.484 1.797q-0.141 0.203-0.336 0.203t-0.336-0.203l-1.484-1.797h-0.359l-1.484 1.797q-0.141 0.203-0.336 0.203t-0.336-0.203l-1.484-1.797h-0.359l-1.484 1.797q-0.141 0.203-0.336 0.203t-0.336-0.203l-0.672-0.813v-7.984q0-1.422 0.555-2.719t1.492-2.234 2.234-1.492 2.719-0.555 2.719 0.555 2.234 1.492 1.492 2.234 0.555 2.719v8zM8 5q0-0.422-0.289-0.711t-0.711-0.289h-3q-0.406 0-0.703 0.289t-0.297 0.711v3q0 0.406 0.297 0.703t0.703 0.297h3q0.422 0 0.711-0.297t0.289-0.703v-3zM14 5q0-0.422-0.289-0.711t-0.711-0.289h-3q-0.406 0-0.703 0.289t-0.297 0.711v3q0 0.406 0.297 0.703t0.703 0.297h3q0.422 0 0.711-0.297t0.289-0.703v-3zM12.5 8h-1q-0.203 0-0.352-0.148t-0.148-0.352v-1q0-0.203 0.148-0.352t0.352-0.148h1q0.203 0 0.352 0.148t0.148 0.352v1q0 0.203-0.148 0.352t-0.352 0.148zM6.5 8h-1q-0.203 0-0.352-0.148t-0.148-0.352v-1q0-0.203 0.148-0.352t0.352-0.148h1q0.203 0 0.352 0.148t0.148 0.352v1q0 0.203-0.148 0.352t-0.352 0.148z"/>
</svg>