<svg xmlns="http://www.w3.org/2000/svg" viewBox="0 0 16 16">
<path d="M12 7c-0.744 0-1.385 0.411-1.729 1.014-0.090-0.006-0.178-0.014-0.271-0.014-2.048 0-3.991-1.56-4.7-3.491 0.426-0.367 0.7-0.904 0.7-1.509 0-1.104-0.896-2-2-2s-2 0.896-2 2c0 0.738 0.404 1.376 1 1.723v6.554c-0.596 0.347-1 0.984-1 1.723 0 1.104 0.896 2 2 2s2-0.896 2-2c0-0.738-0.404-1.376-1-1.723v-3.598c1.315 1.391 3.131 2.321 5 2.321 0.1 0 0.182-0.007 0.271-0.010 0.346 0.601 0.986 1.010 1.729 1.010 1.104 0 2-0.896 2-2s-0.896-2-2-2zM4 14c-0.552 0-1-0.447-1-1s0.448-1 1-1c0.553 0 1 0.448 1 1s-0.447 1-1 1zM4 4c-0.552 0-1-0.447-1-1s0.448-1 1-1c0.553 0 1 0.447 1 1s-0.447 1-1 1zM12 10c-0.552 0-1-0.447-1-1s0.448-1 1-1c0.553 0 1 0.447 1 1s-0.447 1-1 1z"/>
</svg>