<svg xmlns="http://www.w3.org/2000/svg" viewBox="0 0 16 16">
<path d="M14 11.281s0-4.781 0-6.281-1.5-3-3-3c-1 0-1 0-1 0v-2l-3 3 3 3v-2s0.5 0 1 0 1 0.5 1 1 0 6.281 0 6.281c-0.594 0.344-1 0.984-1 1.719 0 1.109 0.891 2 2 2s2-0.891 2-2c0-0.734-0.406-1.375-1-1.719zM13 14c-0.547 0-1-0.453-1-1s0.453-1 1-1 1 0.453 1 1-0.453 1-1 1zM6 12s-0.5 0-1 0-1-0.5-1-1 0-6.281 0-6.281c0.594-0.344 1-0.984 1-1.719 0-1.109-0.891-2-2-2s-2 0.891-2 2c0 0.734 0.406 1.375 1 1.719 0 0 0 4.781 0 6.281s1.5 3 3 3c1 0 1 0 1 0v2l3-3-3-3v2zM3 4c-0.547 0-1-0.453-1-1s0.453-1 1-1 1 0.453 1 1-0.453 1-1 1z"/>
</svg>