<svg xmlns="http://www.w3.org/2000/svg" viewBox="0 0 16 16">
<path d="M11 3c-1.109 0-2 0.891-2 2 0 0.734 0.406 1.375 1 1.719v0.281c0 1-1 2-2 2-0.828 0-1.484 0.172-2 0.453v-4.734c0.594-0.344 1-0.984 1-1.719 0-1.109-0.891-2-2-2s-2 0.891-2 2c0 0.734 0.406 1.375 1 1.719v6.547c-0.594 0.344-1 0.984-1 1.719 0 1.109 0.891 2 2 2s2-0.891 2-2c0-0.531-0.203-1-0.531-1.359 0.297-0.359 0.766-0.641 1.531-0.641 2 0 4-2 4-4v-0.281c0.594-0.344 1-0.984 1-1.719 0-1.109-0.891-2-2-2zM5 2c0.547 0 1 0.453 1 1s-0.453 1-1 1-1-0.453-1-1 0.453-1 1-1zM5 14c-0.547 0-1-0.453-1-1s0.453-1 1-1 1 0.453 1 1-0.453 1-1 1zM11 6c-0.547 0-1-0.453-1-1s0.453-1 1-1 1 0.453 1 1-0.453 1-1 1z"/>
</svg>