<svg xmlns="http://www.w3.org/2000/svg" viewBox="0 0 16 16">
<path d="M8 0c-4.418 0-8 3.582-8 8 0 3.535 2.292 6.533 5.471 7.591 0.4 0.073 0.546-0.174 0.546-0.385 0-0.19-0.007-0.821-0.011-1.489-2.225 0.483-2.695-0.943-2.695-0.943-0.364-0.924-0.888-1.17-0.888-1.17-0.727-0.496 0.055-0.486 0.055-0.486 0.803 0.056 1.226 0.824 1.226 0.824 0.714 1.223 1.873 0.869 2.328 0.664 0.073-0.516 0.28-0.869 0.508-1.068-1.776-0.202-3.644-0.889-3.644-3.954 0-0.874 0.312-1.587 0.823-2.147-0.082-0.203-0.357-1.017 0.079-2.118 0 0 0.671-0.215 2.2 0.82 0.638-0.178 1.322-0.266 2.002-0.269 0.68 0.003 1.364 0.092 2.003 0.27 1.526-1.036 2.198-0.82 2.198-0.82 0.438 1.102 0.162 1.915 0.080 2.117 0.513 0.56 0.822 1.273 0.822 2.147 0 3.073-1.871 3.75-3.653 3.948 0.288 0.248 0.543 0.734 0.543 1.48 0 1.069-0.011 1.932-0.011 2.195 0 0.213 0.146 0.462 0.551 0.384 3.177-1.060 5.467-4.058 5.467-7.591 0-4.418-3.582-8-8-8z"/>
</svg>