<svg xmlns="http://www.w3.org/2000/svg" viewBox="0 0 16 16">
<path d="M16.125 10.5q0 1.094-0.227 1.805t-0.711 1.070-1.070 0.492-1.492 0.133-1.492-0.133-1.070-0.492-0.711-1.070-0.227-1.805q0-0.406-0.289-0.703t-0.703-0.297-0.711 0.297-0.297 0.703q0 1.094-0.227 1.805t-0.711 1.070-1.070 0.492-1.492 0.133-1.492-0.133-1.070-0.492-0.711-1.070-0.227-1.805q0-0.891 0.125-1.391-0.25-0.438-0.016-0.859l3.391-5.344q0.172-0.297 0.492-0.383t0.609 0.086 0.375 0.508-0.086 0.633l-2.438 3.828q0.656-0.078 1.547-0.078 1.172 0 1.789 0.172t0.883 0.578q0.797 0.25 1.328 0.25t1.328-0.25q0.266-0.406 0.883-0.578t1.789-0.172q0.891 0 1.547 0.078l-2.438-3.828q-0.172-0.297-0.086-0.633t0.375-0.508 0.609-0.086 0.492 0.383l3.391 5.344q0.234 0.422-0.016 0.859 0.125 0.5 0.125 1.391zM3.984 8.5q-0.938 0-1.5 0.102t-0.867 0.375-0.398 0.625-0.094 0.977q0 0.766 0.164 1.25t0.508 0.742 0.766 0.344 1.063 0.086 1.063-0.086 0.773-0.344 0.508-0.742 0.156-1.25v-0.438t-0.016-0.367-0.039-0.328-0.078-0.258-0.133-0.227-0.195-0.172-0.273-0.133-0.359-0.078-0.461-0.063-0.586-0.016zM12.266 8.5q-0.328 0-0.578 0.016t-0.461 0.063-0.367 0.078-0.273 0.133-0.195 0.172-0.133 0.234-0.078 0.258-0.039 0.32-0.016 0.367v0.438q0 0.766 0.164 1.25t0.508 0.742 0.766 0.344 1.063 0.086 1.063-0.086 0.773-0.344 0.508-0.742 0.156-1.25q0-0.625-0.094-0.977t-0.398-0.625-0.867-0.375-1.5-0.102zM12.125 10.5q-0.469 0-0.734-0.141t-0.266-0.359 0.266-0.359 0.734-0.141q1.5 0 1.5 0.5t-1.5 0.5zM3.125 10.5q-0.469 0-0.734-0.141t-0.266-0.359 0.266-0.359 0.734-0.141q1.5 0 1.5 0.5t-1.5 0.5z"/>
</svg>