<svg xmlns="http://www.w3.org/2000/svg" viewBox="0 0 16 16">
<path d="M15 0h-14c-0.55 0-1 0.45-1 1v14c0 0.55 0.45 1 1 1h14c0.55 0 1-0.45 1-1v-14c0-0.55-0.45-1-1-1zM5 1v0.5h-0.5v-0.5h0.5zM4.5 12.5v-0.5h0.5v0.5h-0.5zM5 13v0.5h-0.5v-0.5h0.5zM4.5 11.5v-0.5h0.5v0.5h-0.5zM4.5 10.5v-0.5h0.5v0.5h-0.5zM4.5 9.5v-0.5h0.5v0.5h-0.5zM4.5 8.5v-0.5h0.5v0.5h-0.5zM4.5 7.5v-0.5h0.5v0.5h-0.5zM4.5 6.5v-0.5h0.5v0.5h-0.5zM4.5 5.5v-0.5h0.5v0.5h-0.5zM4.5 4.5v-0.5h0.5v0.5h-0.5zM4.5 3.5v-0.5h0.5v0.5h-0.5zM4.5 2.5v-0.5h0.5v0.5h-0.5zM4.5 14h0.5v0.5h-0.5v-0.5zM4 1v0.5h-0.5v-0.5h0.5zM3.5 12.5v-0.5h0.5v0.5h-0.5zM4 13v0.5h-0.5v-0.5h0.5zM3.5 11.5v-0.5h0.5v0.5h-0.5zM3.5 10.5v-0.5h0.5v0.5h-0.5zM3.5 9.5v-0.5h0.5v0.5h-0.5zM3.5 8.5v-0.5h0.5v0.5h-0.5zM3.5 7.5v-0.5h0.5v0.5h-0.5zM3.5 6.5v-0.5h0.5v0.5h-0.5zM3.5 5.5v-0.5h0.5v0.5h-0.5zM3.5 4.5v-0.5h0.5v0.5h-0.5zM3.5 3.5v-0.5h0.5v0.5h-0.5zM3.5 2.5v-0.5h0.5v0.5h-0.5zM3.5 14h0.5v0.5h-0.5v-0.5zM3 1v0.5h-0.5v-0.5h0.5zM2.5 12.5v-0.5h0.5v0.5h-0.5zM3 13v0.5h-0.5v-0.5h0.5zM2.5 11.5v-0.5h0.5v0.5h-0.5zM2.5 10.5v-0.5h0.5v0.5h-0.5zM2.5 9.5v-0.5h0.5v0.5h-0.5zM2.5 8.5v-0.5h0.5v0.5h-0.5zM2.5 7.5v-0.5h0.5v0.5h-0.5zM2.5 6.5v-0.5h0.5v0.5h-0.5zM2.5 5.5v-0.5h0.5v0.5h-0.5zM2.5 4.5v-0.5h0.5v0.5h-0.5zM2.5 3.5v-0.5h0.5v0.5h-0.5zM2.5 2.5v-0.5h0.5v0.5h-0.5zM2.5 14h0.5v0.5h-0.5v-0.5zM15 15h-2v-0.5h-0.5v0.5h-0.5v-0.5h-0.5v0.5h-0.5v-0.5h-0.5v0.5h-0.5v-0.5h-0.5v0.5h-0.5v-0.5h-0.5v0.5h-0.5v-0.5h-0.5v0.5h-0.5v-0.5h-0.5v0.5h-0.5v-0.5h-0.5v-0.5h0.5v-0.5h-0.5v-0.5h0.5v-0.5h-0.5v-0.5h0.5v-0.5h-0.5v-0.5h0.5v-0.5h-0.5v-0.5h0.5v-0.5h-0.5v-0.5h0.5v-0.5h-0.5v-0.5h0.5v-0.5h-0.5v-0.5h0.5v-0.5h-0.5v-0.5h0.5v-0.5h-0.5v-0.5h0.5v-0.5h-0.5v-0.5h0.5v-0.5h-0.5v-0.5h0.5v-0.5h-0.5v-0.5h0.5v-0.5h-0.5v-0.5h0.5v0.5h0.5v-0.5h0.5v0.5h0.5v-0.5h0.5v0.5h0.5v-0.5h0.5v0.5h0.5v-0.5h5.5v14zM7.5 1.5h0.5v0.5h-0.5v-0.5zM8.5 1.5h0.5v0.5h-0.5v-0.5zM9.5 1.5h0.5v0.5h-0.5v-0.5zM10.5 1.5h0.5v0.5h-0.5v-0.5zM8 2h0.5v0.5h-0.5v-0.5zM7.5 2.5h0.5v0.5h-0.5v-0.5zM9 2h0.5v0.5h-0.5v-0.5zM8.5 2.5h0.5v0.5h-0.5v-0.5zM6.5 1.5h0.5v0.5h-0.5v-0.5zM6 2h0.5v0.5h-0.5v-0.5zM7 2h0.5v0.5h-0.5v-0.5zM6.5 2.5h0.5v0.5h-0.5v-0.5zM9.5 2.5h0.5v0.5h-0.5v-0.5zM10.5 2.5h0.5v0.5h-0.5v-0.5zM11.5 1.5h0.5v0.5h-0.5v-0.5zM12.5 1.5h0.5v0.5h-0.5v-0.5zM11.5 2.5h0.5v0.5h-0.5v-0.5zM12.5 2.5h0.5v0.5h-0.5v-0.5zM8 3h0.5v0.5h-0.5v-0.5zM7.5 3.5h0.5v0.5h-0.5v-0.5zM9 3h0.5v0.5h-0.5v-0.5zM8.5 3.5h0.5v0.5h-0.5v-0.5zM9.5 3.5h0.5v0.5h-0.5v-0.5zM10.5 3.5h0.5v0.5h-0.5v-0.5zM8 4h0.5v0.5h-0.5v-0.5zM7.5 4.5h0.5v0.5h-0.5v-0.5zM9 4h0.5v0.5h-0.5v-0.5zM8.5 4.5h0.5v0.5h-0.5v-0.5zM6 3h0.5v0.5h-0.5v-0.5zM7 3h0.5v0.5h-0.5v-0.5zM6.5 3.5h0.5v0.5h-0.5v-0.5zM6 4h0.5v0.5h-0.5v-0.5zM7 4h0.5v0.5h-0.5v-0.5zM6.5 4.5h0.5v0.5h-0.5v-0.5zM9.5 4.5h0.5v0.5h-0.5v-0.5zM10.5 4.5h0.5v0.5h-0.5v-0.5zM11.5 3.5h0.5v0.5h-0.5v-0.5zM12.5 3.5h0.5v0.5h-0.5v-0.5zM11.5 4.5h0.5v0.5h-0.5v-0.5zM12.5 4.5h0.5v0.5h-0.5v-0.5zM8 5h0.5v0.5h-0.5v-0.5zM7.5 5.5h0.5v0.5h-0.5v-0.5zM9 5h0.5v0.5h-0.5v-0.5zM8.5 5.5h0.5v0.5h-0.5v-0.5zM9.5 5.5h0.5v0.5h-0.5v-0.5zM10.5 5.5h0.5v0.5h-0.5v-0.5zM8 6h0.5v0.5h-0.5v-0.5zM7.5 6.5h0.5v0.5h-0.5v-0.5zM9 6h0.5v0.5h-0.5v-0.5zM8.5 6.5h0.5v0.5h-0.5v-0.5zM6 5h0.5v0.5h-0.5v-0.5zM7 5h0.5v0.5h-0.5v-0.5zM6.5 5.5h0.5v0.5h-0.5v-0.5zM6 6h0.5v0.5h-0.5v-0.5zM7 6h0.5v0.5h-0.5v-0.5zM6.5 6.5h0.5v0.5h-0.5v-0.5zM9.5 6.5h0.5v0.5h-0.5v-0.5zM10.5 6.5h0.5v0.5h-0.5v-0.5zM11.5 5.5h0.5v0.5h-0.5v-0.5zM12.5 5.5h0.5v0.5h-0.5v-0.5zM11.5 6.5h0.5v0.5h-0.5v-0.5zM12.5 6.5h0.5v0.5h-0.5v-0.5zM8 7h0.5v0.5h-0.5v-0.5zM7.5 7.5h0.5v0.5h-0.5v-0.5zM9 7h0.5v0.5h-0.5v-0.5zM8.5 7.5h0.5v0.5h-0.5v-0.5zM9.5 7.5h0.5v0.5h-0.5v-0.5zM10.5 7.5h0.5v0.5h-0.5v-0.5zM8 8h0.5v0.5h-0.5v-0.5zM7.5 8.5h0.5v0.5h-0.5v-0.5zM9 8h0.5v0.5h-0.5v-0.5zM8.5 8.5h0.5v0.5h-0.5v-0.5zM6 7h0.5v0.5h-0.5v-0.5zM7 7h0.5v0.5h-0.5v-0.5zM6.5 7.5h0.5v0.5h-0.5v-0.5zM6 8h0.5v0.5h-0.5v-0.5zM7 8h0.5v0.5h-0.5v-0.5zM6.5 8.5h0.5v0.5h-0.5v-0.5zM9.5 8.5h0.5v0.5h-0.5v-0.5zM10.5 8.5h0.5v0.5h-0.5v-0.5zM11.5 7.5h0.5v0.5h-0.5v-0.5zM12.5 7.5h0.5v0.5h-0.5v-0.5zM11.5 8.5h0.5v0.5h-0.5v-0.5zM12.5 8.5h0.5v0.5h-0.5v-0.5zM8 9h0.5v0.5h-0.5v-0.5zM7.5 9.5h0.5v0.5h-0.5v-0.5zM9 9h0.5v0.5h-0.5v-0.5zM8.5 9.5h0.5v0.5h-0.5v-0.5zM9.5 9.5h0.5v0.5h-0.5v-0.5zM10.5 9.5h0.5v0.5h-0.5v-0.5zM8 10h0.5v0.5h-0.5v-0.5zM7.5 10.5h0.5v0.5h-0.5v-0.5zM9 10h0.5v0.5h-0.5v-0.5zM8.5 10.5h0.5v0.5h-0.5v-0.5zM6 9h0.5v0.5h-0.5v-0.5zM7 9h0.5v0.5h-0.5v-0.5zM6.5 9.5h0.5v0.5h-0.5v-0.5zM6 10h0.5v0.5h-0.5v-0.5zM7 10h0.5v0.5h-0.5v-0.5zM6.5 10.5h0.5v0.5h-0.5v-0.5zM9.5 10.5h0.5v0.5h-0.5v-0.5zM10.5 10.5h0.5v0.5h-0.5v-0.5zM11.5 9.5h0.5v0.5h-0.5v-0.5zM12.5 9.5h0.5v0.5h-0.5v-0.5zM11.5 10.5h0.5v0.5h-0.5v-0.5zM12.5 10.5h0.5v0.5h-0.5v-0.5zM8 11h0.5v0.5h-0.5v-0.5zM7.5 11.5h0.5v0.5h-0.5v-0.5zM9 11h0.5v0.5h-0.5v-0.5zM8.5 11.5h0.5v0.5h-0.5v-0.5zM9.5 11.5h0.5v0.5h-0.5v-0.5zM10.5 11.5h0.5v0.5h-0.5v-0.5zM8 12h0.5v0.5h-0.5v-0.5zM7.5 12.5h0.5v0.5h-0.5v-0.5zM9 12h0.5v0.5h-0.5v-0.5zM8.5 12.5h0.5v0.5h-0.5v-0.5zM6 11h0.5v0.5h-0.5v-0.5zM7 11h0.5v0.5h-0.5v-0.5zM6.5 11.5h0.5v0.5h-0.5v-0.5zM6 12h0.5v0.5h-0.5v-0.5zM7 12h0.5v0.5h-0.5v-0.5zM6.5 12.5h0.5v0.5h-0.5v-0.5zM9.5 12.5h0.5v0.5h-0.5v-0.5zM10.5 12.5h0.5v0.5h-0.5v-0.5zM11.5 11.5h0.5v0.5h-0.5v-0.5zM12.5 11.5h0.5v0.5h-0.5v-0.5zM11.5 12.5h0.5v0.5h-0.5v-0.5zM12.5 12.5h0.5v0.5h-0.5v-0.5zM8 13h0.5v0.5h-0.5v-0.5zM7.5 13.5h0.5v0.5h-0.5v-0.5zM9 13h0.5v0.5h-0.5v-0.5zM8.5 13.5h0.5v0.5h-0.5v-0.5zM9.5 13.5h0.5v0.5h-0.5v-0.5zM10.5 13.5h0.5v0.5h-0.5v-0.5zM8 14h0.5v0.5h-0.5v-0.5zM9 14h0.5v0.5h-0.5v-0.5zM6 13h0.5v0.5h-0.5v-0.5zM7 13h0.5v0.5h-0.5v-0.5zM6.5 13.5h0.5v0.5h-0.5v-0.5zM6 14h0.5v0.5h-0.5v-0.5zM7 14h0.5v0.5h-0.5v-0.5zM11.5 13.5h0.5v0.5h-0.5v-0.5zM12.5 13.5h0.5v0.5h-0.5v-0.5z"/>
</svg>