<svg xmlns="http://www.w3.org/2000/svg" viewBox="0 0 16 16">
<path d="M16 10.75v3.5l-3 1.75-2.5-1.453-2.5 1.453-2.5-1.453-2.5 1.453-3-1.75v-3.5l3-1.75v-2l-3-1.75v-3.5l3-1.766 2.5 1.469 2.5-1.469 2.5 1.469 2.5-1.469 3 1.766v3.5l-2 1.156v3.172zM6 13.75l2 1.25 2-1.25v-2.5l-1.719-1.078-2.281 1.328v2.25zM3 10l-2 1.25v2.5l2 1.25 2-1.25v-2.5zM5 2.25l-2-1.25-2 1.25v2.5l2 1.25 2-1.25v-2.5zM4 6.75v2.5l2 1.25 2-1.25v-2.5l-2-1.25zM10 2.25l-2-1.25-2 1.25v2.25l2.281 1.328 1.719-1.078v-2.5zM9 6.75v2.5l2 1.25 2-1.25v-2.5l-2-1.25zM15 4.75v-2.5l-2-1.25-2 1.25v2.25l2.281 1.328zM13.281 10.172l-2.281 1.328v2.25l2 1.25 2-1.25v-2.5z"/>
</svg>