<svg xmlns="http://www.w3.org/2000/svg" viewBox="0 0 16 16">
<path d="M14.938 4.328q-0.484 1.25-0.672 2.703-0.25 1.969-0.25 2.969v0.5q0 0.703-0.211 1.523t-0.5 1.5-0.586 1.258-0.5 0.891l-0.203 0.328h-6q-0.094-0.078-0.227-0.219t-0.477-0.539-0.609-0.758-0.477-0.781-0.211-0.703q0-0.594-0.68-1.906t-1.367-2.328l-0.672-1.016q-0.297-0.297-0.297-0.727t0.297-0.734 0.711-0.305 0.711 0.313q0.047 0.047 0.109 0.148t0.258 0.383 0.383 0.531 0.438 0.563 0.445 0.539 0.375 0.383 0.289 0.156q-0.031-0.5 0-0.5l-1-6.328q-0.063-0.406 0.164-0.75t0.602-0.406 0.68 0.18 0.367 0.664l0.625 3.703q0.563 1.766 0.563 0.438v-5q0-0.406 0.289-0.703t0.703-0.297 0.711 0.297 0.297 0.703v6q0.109-0.031 0.227-0.164t0.164-0.336l0.781-4.641q0.063-0.422 0.375-0.664t0.688-0.18 0.594 0.406 0.156 0.75q-0.047 0.25-0.133 0.648t-0.219 1.414-0.133 1.766q0 0.5 0.125 1t0.25 0.75l0.125 0.25q0.063-0.156 0.188-0.344l1-4.016q0.141-0.391 0.5-0.563t0.719-0.031 0.516 0.516 0 0.766z"/>
</svg>