<svg xmlns="http://www.w3.org/2000/svg" viewBox="0 0 16 16">
<path d="M15.5 13q0.203 0 0.352 0.148t0.148 0.352v2q0 0.203-0.148 0.352t-0.352 0.148h-2q-0.203 0-0.352-0.148t-0.148-0.352v-0.5h-10v0.5q0 0.203-0.148 0.352t-0.352 0.148h-2q-0.203 0-0.352-0.148t-0.148-0.352v-2q0-0.203 0.148-0.352t0.352-0.148h0.5v-10h-0.5q-0.203 0-0.352-0.148t-0.148-0.352v-2q0-0.203 0.148-0.352t0.352-0.148h2q0.203 0 0.352 0.148t0.148 0.352v0.5h10v-0.5q0-0.203 0.148-0.352t0.352-0.148h2q0.203 0 0.352 0.148t0.148 0.352v2q0 0.203-0.148 0.352t-0.352 0.148h-0.5v10h0.5zM1 14.75q0 0.109 0.070 0.18t0.18 0.070h0.5q0.109 0 0.18-0.070t0.070-0.18v-0.5q0-0.109-0.070-0.18t-0.18-0.070h-0.5q-0.109 0-0.18 0.070t-0.070 0.18v0.5zM2 1.25q0-0.109-0.070-0.18t-0.18-0.070h-0.5q-0.109 0-0.18 0.070t-0.070 0.18v0.5q0 0.109 0.070 0.18t0.18 0.070h0.5q0.109 0 0.18-0.070t0.070-0.18v-0.5zM13 2.5v-0.5h-10v0.5q0 0.203-0.148 0.352t-0.352 0.148h-0.5v10h0.5q0.203 0 0.352 0.148t0.148 0.352v0.5h10v-0.5q0-0.203 0.148-0.352t0.352-0.148h0.5v-10h-0.5q-0.203 0-0.352-0.148t-0.148-0.352zM15 1.25q0-0.109-0.070-0.18t-0.18-0.070h-0.5q-0.109 0-0.18 0.070t-0.070 0.18v0.5q0 0.109 0.070 0.18t0.18 0.070h0.5q0.109 0 0.18-0.070t0.070-0.18v-0.5zM14.75 14h-0.5q-0.109 0-0.18 0.070t-0.070 0.18v0.5q0 0.109 0.070 0.18t0.18 0.070h0.5q0.109 0 0.18-0.070t0.070-0.18v-0.5q0-0.109-0.070-0.18t-0.18-0.070zM9 3q1.656 0 2.828 1.172t1.172 2.828h-4v-4zM8 12q-1.656 0-2.828-1.172t-1.172-2.828 1.172-2.828 2.828-1.172v4h4q0 1.656-1.172 2.828t-2.828 1.172z"/>
</svg>