<svg xmlns="http://www.w3.org/2000/svg" viewBox="0 0 16 16">
<path d="M14 16h-12q-0.828 0-1.414-0.586t-0.586-1.414v-12q0-0.828 0.586-1.414t1.414-0.586h12q0.828 0 1.414 0.586t0.586 1.414v12q0 0.828-0.586 1.414t-1.414 0.586zM8 6q-0.828 0-1.414 0.586t-0.586 1.414 0.586 1.414 1.414 0.586 1.414-0.586 0.586-1.414-0.586-1.414-1.414-0.586zM14 2.5q0-0.203-0.148-0.352t-0.352-0.148h-2q-0.203 0-0.352 0.148t-0.148 0.352v2q0 0.203 0.148 0.352t0.352 0.148h2q0.203 0 0.352-0.148t0.148-0.352v-2zM14 7.5q0-0.203-0.148-0.352t-0.352-0.148h-1q-0.203 0-0.352 0.148t-0.148 0.352v0.5q0 1.656-1.172 2.828t-2.828 1.172-2.828-1.172-1.172-2.828v-0.5q0-0.203-0.148-0.352t-0.352-0.148h-1q-0.203 0-0.352 0.148t-0.148 0.352v6q0 0.203 0.148 0.352t0.352 0.148h11q0.203 0 0.352-0.148t0.148-0.352v-6z"/>
</svg>