<svg xmlns="http://www.w3.org/2000/svg" viewBox="0 0 16 16">
<path d="M15 15q-0.719 0.359-1.531 0.578t-1.828 0.305-1.711 0.102-1.93 0.016q-1.266 0-1.922-0.023t-1.695-0.102-1.852-0.297-1.531-0.578q-0.484-0.25-0.742-0.828t-0.258-1.172q0-0.828 0.648-3.211t1.352-3.789q0.188-0.391 0.438-0.641t0.406-0.297l0.156-0.063q0.344 0 1 0.172v-0.172q0-1.359 0.539-2.508t1.453-1.82 2.008-0.672 2.016 0.672 1.453 1.82 0.531 2.508v0.172q0.672-0.172 1-0.172 0.297 0 0.516 0.234t0.484 0.766q0.703 1.406 1.352 3.789t0.648 3.211q0.016 1.5-1 2zM5 7q-0.422 0-0.711 0.289t-0.289 0.703 0.289 0.711 0.711 0.297 0.711-0.297 0.289-0.711-0.289-0.703-0.711-0.289zM8 0.984q-0.828 0-1.414 1.102t-0.586 2.664q0 0.453 0.078 1 1.094 0.25 1.922 0.25t1.922-0.25q0.078-0.547 0.078-1 0-1.563-0.586-2.664t-1.414-1.102zM11 7q-0.422 0-0.711 0.289t-0.289 0.703 0.289 0.711 0.711 0.297 0.711-0.297 0.289-0.711-0.289-0.703-0.711-0.289z"/>
</svg>