<svg xmlns="http://www.w3.org/2000/svg" viewBox="0 0 16 16">
<path d="M15.391 5.922l-5.906 3.703q-0.625 0.375-1.484 0.375t-1.484-0.375l-5.906-3.703q-0.609-0.375-0.609-0.914t0.609-0.93l5.906-3.688q0.625-0.375 1.484-0.375t1.484 0.375l5.906 3.688q0.609 0.391 0.609 0.93t-0.609 0.914zM0.609 10.078l1.734-1.078 4.172 2.625q0.625 0.375 1.484 0.375t1.484-0.375l4.172-2.625 1.734 1.078q0.609 0.391 0.609 0.93t-0.609 0.914l-5.906 3.703q-0.625 0.375-1.484 0.375t-1.484-0.375l-5.906-3.703q-0.609-0.375-0.609-0.914t0.609-0.93z"/>
</svg>