<svg xmlns="http://www.w3.org/2000/svg" viewBox="0 0 16 16">
<path d="M15.391 8.734l-5.906 2.953q-0.625 0.313-1.484 0.313t-1.484-0.313l-5.906-2.953q-0.609-0.313-0.609-0.742t0.609-0.742l1.531-0.75 1.094 0.547-2.234 0.953 7 3 7-3-2.234-0.953 1.094-0.547 1.531 0.75q0.609 0.313 0.609 0.742t-0.609 0.742zM15.391 4.734l-5.906 2.953q-0.625 0.313-1.484 0.313t-1.484-0.313l-5.906-2.953q-0.609-0.313-0.609-0.742t0.609-0.742l5.906-2.953q0.625-0.297 1.484-0.297t1.484 0.297l5.906 2.953q0.609 0.313 0.609 0.742t-0.609 0.742zM0.609 11.266l1.531-0.766 1.094 0.547-2.234 0.953 7 3 7-3-2.234-0.953 1.094-0.547 1.531 0.766q0.609 0.297 0.609 0.734t-0.609 0.734l-5.906 2.953q-0.625 0.313-1.484 0.313t-1.484-0.313l-5.906-2.953q-0.609-0.297-0.609-0.734t0.609-0.734z"/>
</svg>