<svg xmlns="http://www.w3.org/2000/svg" viewBox="0 0 16 16">
<path d="M15.391 8.75l-5.906 2.938q-0.625 0.313-1.484 0.313t-1.484-0.313l-5.906-2.938q-0.609-0.313-0.609-0.742t0.609-0.742l0.531-0.266 5.375 2.703q0.625 0.297 1.484 0.297t1.484-0.297l5.375-2.703 0.531 0.266q0.609 0.313 0.609 0.742t-0.609 0.742zM15.391 4.75l-5.906 2.953q-0.625 0.297-1.484 0.297t-1.484-0.297l-5.906-2.953q-0.609-0.313-0.609-0.742t0.609-0.742l5.906-2.953q0.625-0.297 1.484-0.297t1.484 0.297l5.906 2.953q0.609 0.313 0.609 0.742t-0.609 0.742zM0.609 11.266l0.531-0.266 5.375 2.688q0.625 0.313 1.484 0.313t1.484-0.313l5.375-2.688 0.531 0.266q0.609 0.313 0.609 0.742t-0.609 0.742l-5.906 2.938q-0.625 0.313-1.484 0.313t-1.484-0.313l-5.906-2.938q-0.609-0.313-0.609-0.742t0.609-0.742z"/>
</svg>