<svg xmlns="http://www.w3.org/2000/svg" viewBox="0 0 16 16">
<path d="M16 10.4c0 0 0 0 0 0l-2.6-5.7c0.1-0.1 0.1-0.2 0.1-0.3 0-0.2-0.1-0.4-0.3-0.5v-0.6c0.2 0 0.3-0.1 0.3-0.3v0c0-0.1-0.1-0.2-0.2-0.3l-4.7-0.8c0.1-0.1 0.2-0.3 0.2-0.6 0-0.5-0.4-0.8-0.8-0.8s-0.8 0.4-0.8 0.9c0 0.2 0.1 0.4 0.2 0.6l-4.7 0.7c-0.1 0-0.2 0.2-0.2 0.3v0c0 0.2 0.1 0.3 0.3 0.3v0.6c-0.2 0.1-0.3 0.3-0.3 0.5 0 0.1 0 0.2 0.1 0.3l-2.6 5.7c0 0 0 0 0 0.1 0 0 0 0 0 0.1 0 1.1 1.3 1.9 3 1.9s3-0.8 3-1.9c0 0 0 0 0-0.1 0 0 0 0 0-0.1l-2.5-5.7c0.1-0.1 0.1-0.2 0.1-0.3 0-0.2-0.1-0.4-0.3-0.5v-0.6h4.1c-0.2 0-0.3 0.1-0.3 0.3s0.1 0.3 0.3 0.3v6.3c-0.2 0-0.3 0.1-0.3 0.3v3.6l-1.8 0.6c-0.1 0-0.2 0.1-0.3 0.3h-0.3c-0.2 0-0.3 0.1-0.3 0.3s0.1 0.3 0.3 0.3v0.3c0 0 0.1 0.1 0.3 0.1h6c0.2 0 0.3-0.1 0.3-0.3v-0.3c0.2 0 0.3-0.1 0.3-0.3s-0.1-0.3-0.3-0.3h-0.3c-0.1-0.1-0.2-0.2-0.3-0.3l-1.8-0.6v-3.6c0-0.2-0.1-0.3-0.3-0.3v-6.1c0.2 0 0.3-0.1 0.3-0.3s-0.2-0.3-0.3-0.3h4.1v0.6c-0.2 0.1-0.3 0.3-0.3 0.5 0 0.1 0 0.2 0.1 0.3l-2.5 5.7c0 0 0 0 0 0.1 0 0 0 0 0 0.1 0 1.1 1.3 1.9 3 1.9s3-0.9 3-2.1c0 0.1 0 0 0 0zM0.7 10.2l2.3-5.1 2.3 5.1h-4.6zM10.6 10.2l2.4-5.1 2.3 5.1h-4.7z"/>
</svg>