<svg xmlns="http://www.w3.org/2000/svg" viewBox="0 0 16 16">
<path d="M14.9 1.2v0c-1.5-1.6-3.9-1.6-5.4-0.1l-3.4 3.4c-1.5 1.5-1.5 3.9 0 5.4l0.1 0.1c0.1 0.1 0.3 0.2 0.4 0.3l1.2-1.3c-0.2-0.1-0.3-0.2-0.4-0.3l-0.1-0.1c-0.8-0.8-0.8-2.1 0-2.9l3.4-3.4c0.8-0.8 2.1-0.8 2.9 0l0.1 0.1c0.8 0.8 0.8 2.1 0 2.9l-1.5 1.5c0.3 0.7 0.4 1.4 0.4 2.1l2.4-2.4c1.4-1.5 1.4-3.9-0.1-5.3v0zM9.9 6.1c-0.2-0.1-0.3-0.3-0.4-0.4l-1.3 1.3c0.1 0.1 0.3 0.2 0.4 0.3l0.1 0.1c0.8 0.8 0.8 2.1 0 2.9l-3.4 3.4c-0.8 0.8-2.1 0.8-2.9 0l-0.1-0.1c-0.8-0.8-0.8-2.1 0-2.9l1.5-1.5c-0.2-0.7-0.3-1.4-0.3-2.1l-2.4 2.4c-1.5 1.5-1.5 3.9 0 5.3l0.1 0.1c1.5 1.5 3.9 1.5 5.3 0l3.4-3.4c1.5-1.5 1.5-3.9 0-5.4v0 0zM4.5 2v0c0.3 0 0.5 0.2 0.5 0.5v2c0 0.3-0.2 0.5-0.5 0.5v0c-0.3 0-0.5-0.2-0.5-0.5v-2c0-0.3 0.2-0.5 0.5-0.5zM0 6.5v0c0-0.3 0.2-0.5 0.5-0.5h2c0.3 0 0.5 0.2 0.5 0.5v0c0 0.3-0.2 0.5-0.5 0.5h-2c-0.3 0-0.5-0.2-0.5-0.5zM1.3 3.3v0c0.2-0.2 0.5-0.2 0.7 0l1.8 1.7c0.2 0.2 0.2 0.5 0 0.7v0c-0.2 0.2-0.6 0.2-0.8 0l-1.7-1.7c-0.2-0.2-0.2-0.5 0-0.7zM11.5 14v0c-0.3 0-0.5-0.2-0.5-0.5v-2c0-0.3 0.2-0.5 0.5-0.5v0c0.3 0 0.5 0.2 0.5 0.5v2c0 0.3-0.2 0.5-0.5 0.5zM16 9.5v0c0 0.3-0.2 0.5-0.5 0.5h-2c-0.3 0-0.5-0.2-0.5-0.5v0c0-0.3 0.2-0.5 0.5-0.5h2c0.3 0 0.5 0.2 0.5 0.5zM14.7 12.7v0c-0.2 0.2-0.5 0.2-0.7 0l-1.8-1.7c-0.2-0.2-0.2-0.5 0-0.7v0c0.2-0.2 0.5-0.2 0.7 0l1.8 1.8c0.2 0.1 0.2 0.4 0 0.6z"/>
</svg>