<svg xmlns="http://www.w3.org/2000/svg" viewBox="0 0 16 16">
<path d="M12.359 12.953q-1.531 1.5-3.32 2.273t-3.539 0.773q-1.266 0-2.141-0.266t-1.391-0.797-0.742-1.242-0.227-1.695q0-1.422 0.57-2.805t1.586-2.586l-2.875-2.859q-0.359-0.344-0.266-1.133t0.609-1.305l0.688-0.688q0.516-0.516 1.305-0.609t1.133 0.266l1.891 1.906q0.719-0.719 1.359-1.156t1.664-0.734 2.336-0.297q1.047 0 1.914 0.328t1.43 0.852 0.945 1.195 0.547 1.328 0.164 1.297q0 1.938-0.969 4.109t-2.672 3.844zM11 1q-2.531 0-5.063 1.484l1.156 1.156q1.531-0.641 2.906-0.641 1.453 0 2.227 0.961t0.773 2.539q0 0.531-0.023 0.875t-0.125 0.867-0.305 0.922-0.594 0.891-0.953 0.945q0.406-0.703 0.703-2.016t0.297-2.484q0-0.969-0.547-1.734t-1.453-0.766q-1 0-2.109 0.453l2.078 2.078 1.031 4.469-4.469-1.031-2.547-2.547q-0.922 1.109-1.453 2.305t-0.531 2.273q0 0.594 0.172 1.102t0.555 0.953 1.094 0.695 1.68 0.25q1.531 0 3.195-0.703t2.977-2q1.469-1.438 2.398-3.523t0.93-3.773q0-0.453-0.156-0.977t-0.492-1.063-0.797-0.977-1.133-0.711-1.422-0.273z"/>
</svg>