<svg xmlns="http://www.w3.org/2000/svg" viewBox="0 0 16 16">
<path d="M10.8 7.9c-0.1-1.8-1.4-2.8-3-2.8h-0.1c-1.8 0-2.8 1.4-2.8 3.1 0 1.8 1.2 3 2.8 3 1.8 0 3-1.3 3.1-2.9v-0.4zM7.7 3.5c1.2 0 2.4 0.5 3.2 1.4v0c0-0.4 0.3-0.7 0.7-0.7h0.1c0.6 0 0.7 0.6 0.7 0.7v6.3c0 0.4 0.4 0.6 0.7 0.4 1-1 2.2-5.3-0.6-7.8-2.7-2.4-6.3-2-8.2-0.7-2 1.4-3.3 4.5-2.1 7.4 1.4 3.2 5.3 4.1 7.6 3.2 1.2-0.5 1.7 1.1 0.5 1.6-1.9 0.8-7 0.7-9.4-3.4-1.6-2.9-1.5-7.8 2.8-10.4 3.3-1.9 7.7-1.4 10.3 1.3 2.7 2.9 2.6 8.2-0.1 10.3-1.2 0.9-3 0-3-1.4v-0.4c-0.8 0.8-2 1.3-3.2 1.3-2.4 0-4.5-2.1-4.5-4.5s2.1-4.6 4.5-4.6z"/>
</svg>