<svg xmlns="http://www.w3.org/2000/svg" viewBox="0 0 16 16">
<path d="M14 4q-0.828 0-1.414-0.586t-0.586-1.414h-8q0 0.828-0.586 1.414t-1.414 0.586-1.414-0.586-0.586-1.414 0.586-1.414 1.414-0.586h12q0.828 0 1.414 0.586t0.586 1.414-0.586 1.414-1.414 0.586zM4.5 11q-0.203 0-0.352-0.148t-0.148-0.352v-7q0-0.203 0.148-0.352t0.352-0.148h1q0.203 0 0.352 0.148t0.148 0.352v7q0 0.203-0.148 0.352t-0.352 0.148h-1zM7.5 11q-0.203 0-0.352-0.148t-0.148-0.352v-7q0-0.203 0.148-0.352t0.352-0.148h1q0.203 0 0.352 0.148t0.148 0.352v7q0 0.203-0.148 0.352t-0.352 0.148h-1zM10.5 11q-0.203 0-0.352-0.148t-0.148-0.352v-7q0-0.203 0.148-0.352t0.352-0.148h1q0.203 0 0.352 0.148t0.148 0.352v7q0 0.203-0.148 0.352t-0.352 0.148h-1zM4 12h8q0 0.563 0.203 1t0.5 0.672 0.594 0.398 0.5 0.266 0.203 0.164v1q0 0.203-0.148 0.352t-0.352 0.148h-11q-0.203 0-0.352-0.148t-0.148-0.352v-1q0-0.063 0.203-0.164t0.5-0.266 0.594-0.398 0.5-0.672 0.203-1z"/>
</svg>