<svg xmlns="http://www.w3.org/2000/svg" viewBox="0 0 16 16">
<path d="M15.5 16h-15q-0.203 0-0.352-0.148t-0.148-0.352v-11q0-0.203 0.148-0.352t0.352-0.148h3.5v-3.5q0-0.203 0.148-0.352t0.352-0.148h3q0.203 0 0.352 0.148t0.148 0.352v4.5h1v-1.5q0-0.203 0.148-0.352t0.352-0.148h0.5q0-0.484 0.281-0.867t0.734-0.539q0.031-0.688 0.172-1.141t0.313-0.453 0.313 0.453 0.172 1.141q0.453 0.156 0.734 0.539t0.281 0.867h0.5q0.203 0 0.352 0.148t0.148 0.352v4.5h1.5q0.203 0 0.352 0.148t0.148 0.352v7q0 0.203-0.148 0.352t-0.352 0.148zM2 5h-1v1h1v-1zM2 7h-1v1h1v-1zM2 11h-1v1h1v-1zM4 5h-1v1h1v-1zM4 9h-1v1h1v-1zM5 14h1v-1h-1v1zM5 12h1v-1h-1v1zM6 1h-1v1h1v-1zM7 3h-1v1h1v-1zM7 5h-1v1h1v-1zM7 9h-1v1h1v-1zM9 6h-1v1h1v-1zM9 8h-1v1h1v-1zM9 12h-1v1h1v-1zM11 5h-1v1h1v-1zM11 7h-1v1h1v-1zM11 12h-1v1h1v-1zM13 6h-1v1h1v-1zM13 10h-1v1h1v-1zM13 13h-1v1h1v-1zM15 9h-1v1h1v-1zM15 11h-1v1h1v-1zM15 13h-1v1h1v-1z"/>
</svg>