<svg xmlns="http://www.w3.org/2000/svg" viewBox="0 0 16 16">
<path d="M14.141 6.5l-2.25-2.984-3.094 3.109-0.109 0.094-0.094 0.094t-0.078 0.063q-0.063 0.031-0.156 0.063-0.156 0.063-0.328 0.063h-0.078q-0.125 0-0.25-0.047-0.109-0.031-0.234-0.109-0.063-0.047-0.078-0.055t-0.055-0.031-0.055-0.039q-0.156-0.156-0.234-0.406l-1.391-2.766-3.953 3.172q-0.297 0.297-0.711 0.297t-0.703-0.297-0.289-0.711 0.297-0.695l5.016-4.031q0.297-0.281 0.703-0.281t0.703 0.281q0.047 0.047 0.141 0.219l0.031 0.031q0.047 0.125 0.063 0.125l1.328 2.656 3.016-3.031q0.297-0.281 0.711-0.281t0.711 0.281q0.047 0.047 0.141 0.219v0.008t0.016 0.008l2.984 3.984q0.219 0.359 0.109 0.758t-0.469 0.609-0.758 0.102-0.602-0.469zM5.313 9.281q0.297-0.297 0.703-0.297t0.703 0.297q0.047 0.047 0.141 0.219h0.008t0.008 0.016l0.016 0.016q0.047 0.109 0.063 0.125l1.328 2.656 3.031-3.031q0.281-0.297 0.695-0.297t0.711 0.297q0.047 0.047 0.141 0.219l0.016 0.016 2.984 3.969q0.219 0.359 0.109 0.766t-0.469 0.609-0.758 0.102-0.602-0.461l-2.25-2.984-3.094 3.094-0.109 0.094q0 0.016-0.016 0.023t-0.023 0.016l-0.055 0.055t-0.078 0.063q-0.063 0.031-0.156 0.063-0.156 0.063-0.328 0.063-0.047 0.016-0.078 0.016-0.109-0.016-0.25-0.047-0.109-0.047-0.234-0.125-0.063-0.031-0.078-0.047t-0.055-0.039-0.055-0.039q-0.156-0.141-0.234-0.391l-1.391-2.781-3.953 3.172q-0.297 0.297-0.711 0.297t-0.703-0.289-0.289-0.703 0.297-0.711z"/>
</svg>