<svg xmlns="http://www.w3.org/2000/svg" viewBox="0 0 16 16">
<path d="M16 3.094v2.813q-0.25 0.094-0.5 0.094-0.625 0-1.063-0.438t-0.438-1.063 0.438-1.063 1.063-0.438q0.234 0 0.5 0.094zM11 0.5q0 0.625-0.438 1.063t-1.063 0.438-1.063-0.438-0.438-1.063q0-0.234 0.094-0.5h2.813q0.094 0.266 0.094 0.5zM7 0.5q0 0.625-0.438 1.063t-1.063 0.438-1.063-0.438-0.438-1.063q0-0.234 0.094-0.5h2.813q0.094 0.266 0.094 0.5zM2 0h0.906q0.094 0.25 0.094 0.5 0 0.625-0.438 1.063t-1.063 0.438q-0.422 0-0.781-0.219t-0.547-0.594q0.234-0.531 0.727-0.859t1.102-0.328zM1 4.5q0 0.484-0.281 0.867t-0.719 0.539v-2.813q0.438 0.156 0.719 0.539t0.281 0.867zM1 12.5q0 0.484-0.281 0.867t-0.719 0.539v-2.813q0.438 0.156 0.719 0.539t0.281 0.867zM0.547 15.359q0.422-0.359 0.953-0.359 0.484 0 0.867 0.281t0.539 0.719h-0.906q-0.859 0-1.453-0.641zM5.5 15q0.484 0 0.867 0.281t0.539 0.719h-2.813q0.156-0.438 0.539-0.719t0.867-0.281zM9.5 15q0.484 0 0.867 0.281t0.539 0.719h-2.813q0.156-0.438 0.539-0.719t0.867-0.281zM14 16h-1.906q0.156-0.438 0.539-0.719t0.867-0.281q0.422 0 0.781 0.227t0.547 0.586q-0.406 0.188-0.828 0.188zM16 11.094v2.813q-0.25 0.094-0.5 0.094-0.625 0-1.063-0.438t-0.438-1.063 0.438-1.063 1.063-0.438q0.234 0 0.5 0.094zM15 8.5q0 0.625-0.438 1.063t-1.063 0.438-1.063-0.438-0.438-1.063 0.438-1.063 1.063-0.438 1.063 0.438 0.438 1.063zM11.5 3q0.625 0 1.063 0.438t0.438 1.063-0.438 1.063-1.063 0.438-1.063-0.438-0.438-1.063 0.438-1.063 1.063-0.438zM13 12.5q0 0.625-0.438 1.063t-1.063 0.438-1.063-0.438-0.438-1.063 0.438-1.063 1.063-0.438 1.063 0.438 0.438 1.063zM11 8.5q0 0.625-0.438 1.063t-1.063 0.438-1.063-0.438-0.438-1.063 0.438-1.063 1.063-0.438 1.063 0.438 0.438 1.063zM7.5 3q0.625 0 1.063 0.438t0.438 1.063-0.438 1.063-1.063 0.438-1.063-0.438-0.438-1.063 0.438-1.063 1.063-0.438zM9 12.5q0 0.625-0.438 1.063t-1.063 0.438-1.063-0.438-0.438-1.063 0.438-1.063 1.063-0.438 1.063 0.438 0.438 1.063zM7 8.5q0 0.625-0.438 1.063t-1.063 0.438-1.063-0.438-0.438-1.063 0.438-1.063 1.063-0.438 1.063 0.438 0.438 1.063zM3.5 3q0.625 0 1.063 0.438t0.438 1.063-0.438 1.063-1.063 0.438-1.063-0.438-0.438-1.063 0.438-1.063 1.063-0.438zM5 12.5q0 0.625-0.438 1.063t-1.063 0.438-1.063-0.438-0.438-1.063 0.438-1.063 1.063-0.438 1.063 0.438 0.438 1.063zM1.5 7q0.625 0 1.063 0.438t0.438 1.063-0.438 1.063-1.063 0.438-1.063-0.438-0.438-1.063 0.438-1.063 1.063-0.438zM13.5 2q-0.625 0-1.063-0.438t-0.438-1.063q0-0.25 0.094-0.5h1.906q0.516 0 0.984 0.266 0.016 0.141 0.016 0.234 0 0.625-0.438 1.063t-1.063 0.438z"/>
</svg>