<svg xmlns="http://www.w3.org/2000/svg" viewBox="0 0 16 16">
<path d="M13.547 6.125q-1.063 0.641-2.266 0.813t-1.813-0.203q-0.016 0-0.102-0.063t-0.18-0.117-0.188-0.055v4.375q0.688-0.797 1.563-1.328 0.484-0.297 1.117-0.43t1.195-0.117 1.055 0.070 0.773 0.133l0.297 0.063q-0.047 0.094-0.148 0.25t-0.414 0.586-0.641 0.82-0.82 0.836-0.977 0.742q-2.031 1.219-3 1.281v1.219q0 0.406-0.289 0.703t-0.711 0.297-0.711-0.297-0.289-0.703v-1.031q-0.734 0.094-1.711-0.141t-1.805-0.719q-0.484-0.281-0.922-0.773t-0.711-0.984-0.477-0.961-0.289-0.742-0.086-0.289q0.125-0.047 0.328-0.102t0.789-0.156 1.125-0.109 1.18 0.141 1.094 0.492 1.484 1.891v-4.016q-0.094 0-0.188 0.055t-0.18 0.117-0.102 0.078q-0.609 0.359-1.813 0.188t-2.266-0.813q-0.484-0.297-0.922-0.813t-0.695-0.984-0.469-1.008-0.273-0.742-0.094-0.313q0.109-0.031 0.305-0.078t0.758-0.117 1.078-0.078 1.164 0.125 1.133 0.43q0.969 0.578 1.68 1.398t0.883 1.555v-2.516q0-0.031 0.016-0.125-0.703-0.188-1.266-0.563-0.547-0.375-0.984-1.148t-0.594-1.367l-0.172-0.594q0.078-0.016 0.219-0.055t0.539-0.094 0.766-0.055 0.836 0.102 0.813 0.336q0.766 0.5 1.297 1.305t0.531 1.258v2.516q0.172-0.734 0.883-1.555t1.68-1.398q0.484-0.297 1.117-0.43t1.195-0.117 1.055 0.070 0.773 0.117l0.297 0.078q-0.031 0.109-0.086 0.305t-0.273 0.742-0.477 1.016-0.695 0.984-0.922 0.813z"/>
</svg>