<svg xmlns="http://www.w3.org/2000/svg" viewBox="0 0 512 512">
<path d="M252.8,266.9v-88.8l-80-62.4c-24.4,18.7-40.5,46.3-44.8,76.8c-0.6,4.5-1,9.1-1.2,13.7v0.3 c-0.8,22.8-2.1,39.4-2.1,39.6v0.4c0.8,10.6,1.7,21.1,2.8,31.4v0c0.5-0.1,0.9-0.1,1.4,0C130,279.1,211.2,307.4,252.8,266.9 L252.8,266.9z M252.8,324.8v-49.4c-42.6,35.1-112.9,13.7-124.3,9.9c1.5,13.3,3.3,26.2,5.4,38.4h0c0.8-0.1,1.7,0,2.4,0.5 C136.9,324.3,195.1,363.1,252.8,324.8L252.8,324.8z M371.7,351.4c1.9-6.4,3.5-13.1,5-20.5c-19,11-40.5,16.9-62.4,17.3 c-19.5,0-38.6-5.5-55.1-15.7v76.8c39.8-2.9,109.8-56,110.5-56.5h0C370.3,352.1,371,351.6,371.7,351.4L371.7,351.4z M140.3,351.4 c0.7,0.2,1.4,0.5,2,1c0.7,0.5,70.8,53.7,110.5,56.5v-76.8c-52.9,32.4-105.2,5.7-117.4-1.5C136.9,338.2,138.5,345,140.3,351.4 L140.3,351.4z M309.8,97.1c-18.7,17.7-37.3,26.8-55.3,26.8H253c-17.5-0.4-34.6-9.5-51.2-26.6l-23.9,14.5l76.8,60.2h0 c0.3-0.1,0.6-0.1,1,0c0.3-0.1,0.7-0.1,1,0l76.8-60.2L309.8,97.1z M259.2,275.4v49.4c57.6,38.4,116-0.5,116.5-0.9v0 c0.7-0.5,1.5-0.7,2.4-0.5c2.2-11.9,4-24.8,5.5-38.4v0c-19.5,6.3-39.9,9.7-60.4,10C300.3,296,277.7,289.1,259.2,275.4L259.2,275.4z  M205.4,91.5c15.6,16.7,31.5,25.6,47.7,25.9c16.2,0.3,34.9-8.4,53.6-26.1c0-0.7,0.1-1.4,0.4-2c3.8-10.1,9-19.5,15.7-28 c-21.6-6.8-44.1-10.8-66.7-11.7c-22.7,0.9-45.1,4.9-66.7,11.7c6.6,8.5,11.8,17.9,15.6,28C205.2,89.9,205.4,90.7,205.4,91.5 L205.4,91.5z M384.9,206.9c-0.2-4.6-0.6-9.2-1.2-13.7c-4.3-30.5-20.4-58.1-44.8-76.8l-79.7,61.8V267c42,40.4,122.9,12.1,123.7,11.8 c0.5-0.1,1-0.1,1.5,0c1.1-10.5,2-21.3,2.8-32c0-2.6-1.5-18.2-2.3-39.2L384.9,206.9z M42.7,159.4h1.2c28.4,7.5,54.9,20.9,77.8,39.2 c0-2.1,0.4-4.3,0.7-6.4v0c4.3-31.6,20.6-60.3,45.5-80.1L136,89.8l-34.4-24.1l0,0c-1.2-0.9-2-2.1-2.3-3.5C50.7,78,42,139,40.5,159.1 H42L42.7,159.4z M120.8,207c0-0.2,0-0.4,0-0.6C97.9,187.2,71,173.4,42,166l-1.9-0.6L0,191l118.6,55.4 C118.6,246.3,119.9,230.1,120.8,207L120.8,207z M344.5,111.9c25,19.9,41.2,48.7,45.5,80.3c0,2.2,0.5,4.3,0.7,6.4l0,0 c22.9-18,49.2-31.1,77.4-38.4l1.3-0.4h2.2c-1.5-19.9-10.2-81-58.7-96.9c-0.3,1.4-1.1,2.7-2.3,3.5l-34.4,23.4L344.5,111.9z  M172.8,107.6l25.6-15.8c0-0.2,0-0.5,0-0.7c-3.7-10.1-9.1-19.4-15.9-27.7c-8.9-11.1-22.3-17.6-36.5-17.6 c-14.9,0.7-29.2,5.8-41.1,14.7l34.4,24.1L172.8,107.6z M313.6,91.8l25.6,15.8l32.9-23l34.4-24.1l0,0c-12-8.8-26.3-13.9-41.1-14.7 c-14.2,0-27.6,6.5-36.5,17.6C322.1,71.7,316.7,81,313,91C313.2,91.2,313.4,91.5,313.6,91.8L313.6,91.8z M391.2,206.4 c0,0.2,0,0.4,0,0.6c0.8,23,2.3,39.4,2.3,39.4L512,191l-40.1-25.6L470,166h0C441,173.4,414.1,187.2,391.2,206.4L391.2,206.4z  M256,415.4c-41.7,0-117.6-58-117.6-58l-17.7,44.8c0,0,64.4,64,135.3,64c70.8,0,135.3-64,135.3-64l-17.7-44.8 C373.6,357.4,297.7,415.4,256,415.4L256,415.4z"/>
</svg>