<svg xmlns="http://www.w3.org/2000/svg" viewBox="0 0 512 512">
<path d="M256,288.8c4,0,8.1,2.7,8,8.3l-2.8,133.7c-0.1,5.8-10.3,5.8-10.4,0l-2.7-133.7C248,291.5,252,288.8,256,288.8L256,288.8z  M289.4,148c3.4,0.1,6.7,2.9,6.7,7.7c0,36.4,17,68.9,41.1,84c7.8,4.9,2.2,13.6-4.2,10.6c-26.1-12.2-50.4-53.2-50.4-94.6 C282.7,150.3,286.1,147.9,289.4,148L289.4,148z M222.5,148c3.4-0.1,6.8,2.3,6.8,7.7c0,41.4-24.3,82.4-50.4,94.6 c-6.3,2.9-12-5.8-4.2-10.6c24.1-15.1,41.1-47.6,41.1-84C215.8,150.9,219.2,148.2,222.5,148L222.5,148z M220.2,27.5 c-7.6,0-10,4-11.4,10.1L206,49.8c-4.2,17.8-17.2,27-36.3,34.8l-80.9,33.2c-14.6,6-24.7,16.9-35.3,34.2L2,261.3 c-3,6.3-2.7,6.8,1.1,12L27.9,307c4.6,6.3,7.6,7.1,17,2l51.7-27.8c14.1-8.1,10.8-13.6,9-29.7l-4-34.2c-0.7-5.9,5.3-10.1,7.3-2.5 c5.5,27.2,8.1,41.5,13,68.3l14.9,81.3c3.8,19.7-2.6,55.5-7.9,88.1c-3.1,18.5,3.7,31.9,18.2,31.9h218c14.5,0,21.2-13.3,18.2-31.9 c-5.4-32.6-11.7-68.4-8-88.1l14.9-81.3c4.8-26.9,7.5-41.1,13-68.3c2-7.6,8-3.4,7.3,2.5l-4,34.2c-1.9,16.1-5.1,21.6,9,29.7l51.7,27.8 c9.4,5,12.3,4.3,16.9-2l24.8-33.7c3.8-5.2,4.1-5.8,1.2-12l-51.5-109.2c-10.6-17.4-20.8-28.3-35.3-34.2l-81-33.2 c-19.1-7.8-32.1-17-36.3-34.8l-2.8-12.1c-1.4-6.1-3.8-10.1-11.4-10.1L220.2,27.5L220.2,27.5z"/>
</svg>