<svg xmlns="http://www.w3.org/2000/svg" viewBox="0 0 512 512">
<path d="M256,46c-13.1,0-22,18.4-22,35.6c0,6.8,1.6,28.8,22,28.8c6.4,0.4,12.5-2.6,16.3-7.8c4-6.2,6-13.5,5.7-21 C277.9,64.4,269.1,46,256,46L256,46z M256,195c-22.6,18.7-50.3,99.8-60.4,226.4c17.5-6.2,36.1-8.7,54.6-7.3l5.8,0l5.6,0h0 c18.6-1.4,37.3,1.1,54.8,7.4C306.3,294.9,278.6,213.7,256,195L256,195z M426.2,445.5c-12.5-43.8-21.5-84.3-29.5-120.1 c-25.4-114.1-40.5-169-103.9-169c-4,0-7.5-2.5-8.7-6.3c-1.3-3.8,0-7.9,3.2-10.3c13.5-9.4,23.5-23,28.5-38.6c5-15.7,4.6-32.6-1.1-48 C304.6,22.9,279.3,0,256,0s-48.6,22.9-58.7,53.2c-5.7,15.4-6,32.3-1.1,48c5,15.7,15,29.3,28.5,38.6c3.2,2.4,4.5,6.5,3.2,10.3 c-1.3,3.8-4.8,6.3-8.7,6.3c-63.5,0-78.5,54.9-103.9,169c-8,35.8-17,76.3-29.5,120.1v0c-1.4,4.7-1.5,9.6-0.3,14.3 c1.1,4.7,3.5,9,6.9,12.6c19.7,18.3,43.4,31.8,69.3,39.2c2.8,0.8,5.7,0.3,8.1-1.4c2.3-1.7,3.7-4.4,3.7-7.3 c2.7-164.4,36.2-305.9,78.5-327.1h0c2.6-1.3,5.6-1.3,8.2,0c42.3,21.2,75.8,162.7,78.5,327.1c0,2.9,1.4,5.6,3.7,7.3 c2.3,1.7,5.3,2.2,8.1,1.4c25.9-7.4,49.6-20.9,69.2-39.2c3.4-3.5,5.7-7.8,6.9-12.6C427.7,455.1,427.6,450.2,426.2,445.5L426.2,445.5z  M256,128.8c-24.1,0-40.4-19-40.4-47.2c0-26.6,15.1-54,40.4-54c25.3,0,40.4,27.5,40.4,54C296.4,109.9,280.1,128.8,256,128.8z"/>
</svg>