<svg xmlns="http://www.w3.org/2000/svg" viewBox="0 0 512 512">
<path d="M197.8,213.4c0.4,0,0.8,0.1,1.2,0.1c2.5,0,4.9-0.9,6.8-2.6l50.2-44.3l50.3,44.3c1.8,1.6,4.2,2.6,6.8,2.6 c0.3,0,0.7-0.1,1.1-0.1c2.9-0.3,5.5-1.8,7.2-4.3L399,99.6c1.7-2.4,2.4-5.4,1.6-8.4c-0.7-2.9-2.8-5.3-5.4-6.7l-56-27.8 c-4.1-2-9-1.1-12.1,2.3L256,137.7l-71-78.6c-3.1-3.4-8-4.3-12.2-2.3l-56,27.8c-2.7,1.3-4.6,3.8-5.3,6.7c-0.7,3-0.2,6,1.5,8.4 l77.6,109.5C192.4,211.5,195,213.1,197.8,213.4L197.8,213.4z M49.6,107.4c-3.4,1.3-5.7,4.5-6.2,8.1L8,384.4h95.5V203.2 c0-5.7,4.6-10.2,10.2-10.2c5.6,0,10.2,4.5,10.2,10.2v253h264v-253c0-5.7,4.6-10.2,10.2-10.2c5.7,0,10.2,4.5,10.2,10.2v181.2H504 l-35.2-268.9c-0.5-3.6-2.9-6.8-6.4-8.1l-41.3-16.9c0.7,7.7-1.2,15.2-5.7,21.3L338,221c-4.6,7-12.7,11.8-21.7,12.8l-1.2,0.1 c-0.7,0.1-1.4,0.1-2,0.1c-7.5,0-14.7-2.8-20.4-7.7L256,193.9l-36.7,32.4c-5.5,4.9-12.7,7.7-20.3,7.7h-1.2l-2.3-0.2 c-8.6-0.9-16.5-5.6-21.6-12.8L96.4,111.5C92,105.6,90,98,90.9,90.4L49.6,107.4z M103.5,404.9H5.3l-5.2,39.8 c-0.4,2.9,0.5,5.8,2.5,8.1c1.9,2.1,4.7,3.5,7.7,3.5h93.3L103.5,404.9z M408.5,404.9v51.4h93.2c3,0,5.7-1.3,7.7-3.5 c1.9-2.3,2.9-5.2,2.5-8.1l-5.2-39.8L408.5,404.9z"/>
</svg>