<svg xmlns="http://www.w3.org/2000/svg" viewBox="0 0 512 512">
<path d="M509.8,408.8c-15.6-26.9-28.6-67.4-36.1-95.4c4.8-10.8,8.6-23.2,8.6-41c0-34.5-5.4-55.5-17.2-66.3c-2.2-2.2-4.8-3.8-7.5-5.4 C447.9,91.9,362.7,7.8,256,7.8C150.4,7.8,64.7,91.9,55.5,200.2c-2.7,1.6-5.4,2.7-7,4.8c-12.9,11.9-18.3,32.9-18.3,67.4 c0,17.2,3.8,30.2,8.1,40.4c-8.1,28-20.5,68.4-36.1,95.9c-3.8,5.9-2.7,14.5,3.8,17.8c31.8,18.3,85.7,29.6,135.3,36.6 c32.3,25.9,72.8,41,115.3,41c42.6,0,82.5-15.6,114.8-41c49.6-7,103.5-18.3,134.7-36.6C512.5,423.3,513.6,414.7,509.8,408.8 L509.8,408.8z M255.5,471.8c-76,0-142.8-59.3-157.9-140.7c-1.1-6.5-6.5-11.3-12.4-12.9c-2.2-0.5-22.6-7-22.6-45.8 c0-33.4,5.9-41.5,8.6-44.2c0.5-0.5,1.6-0.5,2.7-0.5c5.9,11.9,14.5,30.2,17.8,50.1c31.8-45.3,34.5-91.1,38.8-128.3l11.9,29.6 c2.2,4.8,7,8.6,12.4,8.6h202.6c5.4,0,10.2-3.2,12.4-8.6l11.9-30.2c4.3,37.7,7,83.5,38.8,129.3c2.7-19.9,11.3-37.7,17.2-50.1 c1.1,0.5,2.7,0,3.2,1.1c1.6,1.6,8.1,10.2,8.1,43.7c0,38.8-20.5,45.3-22.1,45.8c-6.5,1.6-11.3,6.5-12.9,12.9 C398.8,412.5,332.5,471.8,255.5,471.8L255.5,471.8z"/>
</svg>