<svg xmlns="http://www.w3.org/2000/svg" viewBox="0 0 120 120">
<path opacity="0.25" d="M117.6,106.5L98,86.8c-1.6-1.6-4-1.6-5.5,0l-8.6-8.6c7-8.3,11.2-19,11.2-30.6C95.1,21.3,73.8,0,47.6,0 C21.3,0,0,21.3,0,47.6c0,26.3,21.3,47.6,47.6,47.6c11.7,0,22.4-4.2,30.7-11.3l8.6,8.6l0,0c-1.6,1.6-1.6,4.1,0,5.6l19.6,19.6 c3.1,3.1,8.1,3.1,11.2,0C120.7,114.6,120.7,109.6,117.6,106.5z M47.6,83.2c-19.7,0-35.7-16-35.7-35.7s16-35.7,35.7-35.7 s35.7,16,35.7,35.7S67.3,83.2,47.6,83.2z"/>
<path d="M34.7,43.6c0,2.7-2.2,5-5,5c-2.7,0-5-2.2-5-5s2.2-5,5-5C32.5,38.6,34.7,40.9,34.7,43.6z M65.4,38.6 c-2.7,0-5,2.2-5,5s2.2,5,5,5c2.7,0,5-2.2,5-5S68.1,38.6,65.4,38.6z M47.6,53.5c-5.7,0-10.6,4.2-11.7,9.6c-0.2,1.2,0.8,2.3,2,2.3 h19.4c1.2,0,2.2-1.1,2-2.3C58.2,57.7,53.3,53.5,47.6,53.5z"/>
</svg>