<svg xmlns="http://www.w3.org/2000/svg" viewBox="0 0 120 120">
<path opacity="0.25" d="M96.7,9.8C88.9,3.5,79.1,0,69,0C55.4-0.1,42.6,6.1,34.2,16.7c-13.3,16.6-12.8,39.7,0,55.6L8.7,104.1 c-1.4,1.7-2.1,3.8-2.1,6c0,5.4,4.3,9.8,9.7,9.8c0.4,0,0.7,0,1.1,0c2.6-0.3,4.9-1.6,6.6-3.6l25.4-31.9c18.3,9,41,4.4,54.3-12.2 C119,53.2,115.9,25.1,96.7,9.8z M21.8,114.6c-2.4,2.9-6.7,3.4-9.6,1.1c-3.1-2.4-3.7-6.7-1.3-9.8L36,74.4c1.6,1.7,3.3,3.3,5.1,4.8 c1.9,1.5,3.8,2.8,5.8,4L21.8,114.6z M68.8,85.2c-22.5,0-40.8-18.3-40.7-40.9c0-9.2,3.2-18.2,8.9-25.4C44.8,9.3,56.5,3.6,69,3.6 c22.5,0,40.8,18.3,40.7,40.9C109.6,67,91.3,85.3,68.8,85.2z"/>
<path opacity="0.5" d="M56.4,69.8c0,2.6-2.1,4.7-4.7,4.7c-2.6,0-4.7-2.1-4.7-4.7c0-2.6,4.7-10.2,4.7-10.2S56.4,67.2,56.4,69.8z"/>
<path d="M59.9,51.1l-5.1,4.1l-2.1-2.7l4.5-3.6l-4.5-3.6l2.1-2.7l5.1,4.1l5.1-4.1l2.1,2.7l-4.5,3.6l4.5,3.6L65,55.2 L59.9,51.1z M63.9,71c-0.5,0.4-0.8,1-0.8,1.6c0,1.1,0.9,2.1,2.1,2.1c0.5,0,0.9-0.1,1.3-0.4c2.6-2,5.8-3.1,9.1-3.1 c3.2,0,6.2,1,8.8,2.8c0.9,0.5,1.9,0.3,2.6-0.4c0.8-0.9,0.7-2.2-0.2-2.9C79.9,65.8,70.6,65.9,63.9,71z M98,52.5l-4.5-3.6l4.5-3.6 l-2.1-2.7l-5.1,4.1l-5.1-4.1l-2.1,2.7l4.5,3.6l-4.5,3.6l2.1,2.7l5.1-4.1l5.1,4.1L98,52.5z"/>
</svg>