<svg xmlns="http://www.w3.org/2000/svg" viewBox="0 0 16 16">
<path d="M7.213 11.27c-1.24-0.129-2.359-0.435-3.316-1.184-0.119-0.093-0.241-0.183-0.35-0.287-0.419-0.403-0.461-0.864-0.13-1.339 0.284-0.407 0.76-0.515 1.255-0.282 0.096 0.045 0.187 0.102 0.275 0.162 1.784 1.226 4.236 1.26 6.027 0.055 0.177-0.136 0.367-0.247 0.587-0.304 0.427-0.11 0.826 0.047 1.056 0.421 0.262 0.427 0.259 0.844-0.064 1.176-0.495 0.508-1.091 0.876-1.753 1.133-0.626 0.243-1.311 0.365-1.99 0.446 0.102 0.111 0.151 0.166 0.215 0.231 0.921 0.926 1.847 1.847 2.765 2.776 0.313 0.316 0.378 0.709 0.206 1.077-0.188 0.402-0.61 0.667-1.023 0.638-0.262-0.018-0.466-0.148-0.648-0.331-0.695-0.7-1.404-1.386-2.085-2.099-0.198-0.207-0.294-0.168-0.469 0.012-0.699 0.72-1.41 1.429-2.125 2.134-0.321 0.317-0.703 0.374-1.075 0.193-0.396-0.192-0.648-0.596-0.628-1.002 0.013-0.275 0.148-0.484 0.337-0.673 0.912-0.91 1.821-1.823 2.731-2.735 0.060-0.061 0.116-0.125 0.204-0.219z"/>
<path d="M7.968 8.099c-2.213-0.008-4.027-1.842-4.014-4.058 0.013-2.241 1.828-4.047 4.063-4.040 2.239 0.006 4.036 1.838 4.025 4.102-0.011 2.212-1.838 4.004-4.074 3.997zM9.979 4.046c-0.004-1.1-0.88-1.977-1.979-1.978-1.107-0.001-1.992 0.891-1.983 2.001 0.008 1.096 0.892 1.966 1.993 1.962 1.098-0.004 1.972-0.886 1.968-1.986z"/>
</svg>