<svg xmlns="http://www.w3.org/2000/svg" viewBox="0 0 16 16">
<path d="M8 16q-2.172 0-4.016-1.070t-2.914-2.914-1.070-4.016 1.070-4.016 2.914-2.914 4.016-1.070q1.75 0 2.375 0.43t0.625 1.57q0 0.5-0.234 0.953t-0.516 0.734-0.516 0.633-0.234 0.68q0 1.5 1.5 1.5 0.328 0 0.68-0.234t0.633-0.516 0.734-0.516 0.953-0.234q1.125 0 1.563 0.641t0.438 2.359q0 1.625-0.633 3.109t-1.703 2.555-2.555 1.703-3.109 0.633zM4.5 13q0.625 0 1.063-0.438t0.438-1.063-0.438-1.063-1.063-0.438-1.063 0.438-0.438 1.063 0.438 1.063 1.063 0.438zM3.5 5q-0.625 0-1.063 0.438t-0.438 1.063 0.438 1.063 1.063 0.438 1.063-0.438 0.438-1.063-0.438-1.063-1.063-0.438zM6.5 2q-0.625 0-1.063 0.438t-0.438 1.063 0.438 1.063 1.063 0.438 1.063-0.438 0.438-1.063-0.438-1.063-1.063-0.438zM9.5 11q-0.625 0-1.063 0.438t-0.438 1.063 0.438 1.063 1.063 0.438 1.063-0.438 0.438-1.063-0.438-1.063-1.063-0.438zM12.5 8q-0.625 0-1.063 0.438t-0.438 1.063 0.438 1.063 1.063 0.438 1.063-0.438 0.438-1.063-0.438-1.063-1.063-0.438z"/>
</svg>