<svg xmlns="http://www.w3.org/2000/svg" viewBox="0 0 16 16">
<path d="M14.25 3.797q-0.828-1.109-2.219-1.563 0.094-0.531 0.508-0.883t0.961-0.352q0.625 0 1.063 0.438t0.438 1.063q0 0.406-0.203 0.75t-0.547 0.547zM13 6v0.125q0 0.297-0.008 0.469t-0.047 0.422-0.148 0.367-0.297 0.117q-0.406 0-0.953-0.547t-0.547-0.961 0.297-0.703 0.711-0.289 0.703 0.297 0.289 0.703zM10 10q-0.422 0-0.711-0.148t-0.289-0.352 0.297-0.352 0.711-0.148 0.703 0.148 0.289 0.352-0.289 0.352-0.711 0.148zM7.5 7.5q-0.188 0-0.297-0.117t-0.148-0.367-0.047-0.422-0.008-0.469v-0.125q0-0.422 0.297-0.711t0.711-0.289 0.703 0.289 0.289 0.711-0.539 0.961-0.961 0.539zM6 5v1q0 1.172 0.695 2.133t1.82 1.461q0.109 0.375 0.695 0.891t1.039 0.516q0.391 0 0.891-0.398t0.75-0.805q1.359-0.391 2.164-1.047t0.945-1.75q0 2.297-0.328 4.078t-1.016 2.852-1.656 1.070q-0.406 0-0.703-0.297t-0.297-0.703q0-1.594-0.938-2.844-1.063 1-1.063 1.844 0 0.328 0.156 0.594t0.344 0.406 0.344 0.406 0.156 0.594q0 0.406-0.297 0.703t-0.703 0.297q-0.156 0-0.531-0.18t-0.883-0.547-0.992-0.844-0.898-1.148-0.586-1.375q-0.328 0.094-0.609 0.094 0.172 0.172 0.25 0.266t0.164 0.297 0.086 0.438q0 0.422-0.289 0.711t-0.711 0.289q-0.969 0-1.656-0.93t-1.016-2.484-0.328-3.586q0-1.891 0.859-3.32t2.141-1.68q-0.859 0.625-1.43 1.742t-0.57 2.258q0 1.531 0.773 2.664t1.914 1.289q-0.688-1.313-0.688-2.953 0-1.578 0.625-2.852t1.625-1.82q-0.25-0.375-0.25-0.828 0-0.625 0.438-1.063t1.063-0.438 1.063 0.438 0.438 1.063q0 0.25-0.094 0.516-1.172 0.047-1.977 0.82t-0.93 2.164z"/>
</svg>