<svg xmlns="http://www.w3.org/2000/svg" viewBox="0 0 16 16">
<path d="M14.078 12.953l-5.078 2.047v-1.5l4.594-1.688q0.375-0.172 0.398-0.383t-0.328-0.336-0.859-0.094-0.898 0.203l-2.906 0.797v-1.5q1.156-0.516 3.5-0.5 0.625 0 0.906 0.008t0.711 0.078 0.789 0.227q0.688 0.266 0.945 0.578t0.094 0.648-0.625 0.68-1.242 0.734zM11 9q-0.328 0-0.5-0.008t-0.453-0.031-0.43-0.094-0.313-0.172-0.234-0.281-0.070-0.414v-3.516q0-0.203-0.148-0.352t-0.352-0.148-0.352 0.148-0.148 0.352v10.516l-2-1v-12.016l2 0.766q0.375 0.219 1 0.484 1.328 0.578 2.164 1.555t0.836 2.211v0.5q0 0.219-0.008 0.352t-0.055 0.375-0.148 0.391-0.305 0.266-0.484 0.117zM1.094 13.188q-0.688-0.266-0.945-0.578t-0.094-0.648 0.625-0.688 1.242-0.742l3.078-1.234v1.438l-2.594 0.953q-0.469 0.297-0.391 0.555t0.484 0.258q0.375 0 1-0.117t1.063-0.227l0.438-0.109v1.391q-0.703 0.063-1.5 0.063-0.625 0-0.906-0.016t-0.711-0.086-0.789-0.211z"/>
</svg>