<svg xmlns="http://www.w3.org/2000/svg" viewBox="0 0 16 16">
<path d="M15.703 15.688q-0.297 0.297-0.703 0.313t-0.688-0.266l-1.484-1.484q-1.344 0.891-2.992 0.719t-2.82-1.344l-0.25-0.25 6.625-6.609 0.234 0.234q1.172 1.172 1.344 2.82t-0.703 3.008l1.484 1.469q0.281 0.281 0.266 0.688t-0.313 0.703zM8.313 6.734l-1.594-1.578-1.563 1.563 1.594 1.578q0.281 0.281 0.266 0.688t-0.313 0.703-0.703 0.313-0.688-0.266l-1.594-1.578-1.094 1.094-0.234-0.25q-1.172-1.172-1.344-2.82t0.703-2.992l-1.469-1.469q-0.281-0.281-0.266-0.688t0.313-0.703 0.703-0.313 0.688 0.266l1.469 1.469q1.344-0.891 2.992-0.719t2.836 1.344l0.234 0.25-1.094 1.094 1.594 1.578q0.281 0.281 0.266 0.688t-0.313 0.703-0.703 0.313-0.688-0.266z"/>
</svg>