<svg xmlns="http://www.w3.org/2000/svg" viewBox="0 0 16 16">
<path d="M16,15c0-0.3-0.1-0.5-0.3-0.7l-2.5-2.5c0.6-0.9,0.8-1.9,0.7-3c-0.1-1.1-0.6-2-1.3-2.8l-0.2-0.2l-1.1,1.1L9.2,4.7l1.1-1.1 L10,3.4C9.2,2.6,8.3,2.1,7.2,2c-1.1-0.1-2.1,0.1-3,0.7L1.7,0.3C1.5,0.1,1.3,0,1,0C0.8,0,0.5,0.1,0.3,0.3S0,0.8,0,1 c0,0.3,0.1,0.5,0.3,0.7l2.5,2.5C2.2,5.1,1.9,6.1,2,7.2c0.1,1.1,0.6,2,1.3,2.8l0.2,0.2l1.1-1.1l2.1,2.1l-1.1,1.1L6,12.6 c0.8,0.8,1.7,1.2,2.8,1.3c1.1,0.1,2.1-0.1,3-0.7l2.5,2.5c0.2,0.2,0.4,0.3,0.7,0.3c0.3,0,0.5-0.1,0.7-0.3v0C15.9,15.5,16,15.3,16,15z  M8.3,9.8L6.2,7.7l1.6-1.6l2.1,2.1L8.3,9.8z"/>
</svg>