<svg xmlns="http://www.w3.org/2000/svg" viewBox="0 0 640 640">
<path d="M425.94,293.44c-31.68-28.91-50.58-69.21-52.56-112.05c10.68-1.01,20.12-7.35,25.1-16.85c4.98-9.5,4.81-20.88-0.44-30.22 c-5.25-9.35-14.88-15.42-25.57-16.12l16.91-82.02c1.65-6.87,0.48-14.12-3.26-20.12c-3.62-5.85-9.46-9.96-16.19-11.39 c-13.09-2.61-26.38-4.16-39.73-4.62c-7.02-0.48-13.89,2.17-18.77,7.23c-4.14,4.44-10.91,5.19-15.92,1.77 c-5.92-4.52-13.42-6.43-20.78-5.28c-1.58,0.29-3.13,0.59-4.68,0.91c-6.71,1.44-12.54,5.55-16.15,11.39 c-3.73,5.98-4.91,13.22-3.26,20.07l16.91,82.06c-10.7,0.7-20.33,6.76-25.57,16.12c-5.25,9.35-5.42,20.72-0.44,30.22 c4.97,9.5,14.42,15.84,25.09,16.85c-1.97,42.84-20.88,83.14-52.56,112.05c-43.86,43.92-67.9,103.83-66.56,165.88 c-1.49,62.94,23.29,123.66,68.41,167.59c9.33,8.49,21.51,13.17,34.13,13.09h139.93c12.62,0.08,24.8-4.6,34.12-13.09 c45.12-43.92,69.9-104.64,68.41-167.59C493.84,397.27,469.8,337.36,425.94,293.44L425.94,293.44z M259.14,149.84 c0.01-5.87,4.75-10.61,10.62-10.63h100.46c5.87,0,10.62,4.75,10.62,10.63c0,5.87-4.75,10.62-10.62,10.62H269.76 C263.9,160.46,259.15,155.7,259.14,149.84z M409.71,611.26c-5.41,4.89-12.46,7.56-19.75,7.49H250.03 c-7.29,0.07-14.34-2.6-19.75-7.49c-38.53-35.43-61.54-92.23-61.54-151.94h0.01c-1.35-56.22,20.3-110.56,59.93-150.45 c35.91-32.81,57.27-78.57,59.37-127.16h63.9h-0.01c2.1,48.59,23.47,94.35,59.37,127.16c39.63,39.89,61.28,94.23,59.93,150.45 C471.25,519.03,448.24,575.83,409.71,611.26z"/>
</svg>