<svg xmlns="http://www.w3.org/2000/svg" viewBox="0 0 640 640">
<path d="M267.37,159.81h105.26c3.7,0.01,7.24-1.45,9.86-4.06c2.62-2.61,4.09-6.16,4.09-9.85c0-3.69-1.47-7.24-4.09-9.85 c-2.62-2.61-6.16-4.07-9.86-4.06H267.37c-3.7-0.01-7.25,1.45-9.87,4.06c-2.62,2.61-4.09,6.16-4.09,9.85c0,3.7,1.47,7.24,4.09,9.85 C260.12,158.36,263.67,159.82,267.37,159.81z M481.26,470.17c0,63.33-24.44,123.61-65.38,161.24c-6.18,5.59-14.25,8.66-22.58,8.58 H246.68c-8.33,0.08-16.39-2.98-22.57-8.58c-40.94-37.64-65.38-97.91-65.38-161.24c-1.41-59.67,21.59-117.34,63.67-159.66 c37.76-34.5,59.88-82.87,61.28-134h72.65c1.4,51.13,23.52,99.49,61.28,134C459.68,352.84,482.68,410.5,481.26,470.17L481.26,470.17z  M453.44,470.17c0.2-33.52-7.73-66.59-23.12-96.37c-1.64-3.08-5-4.83-8.46-4.39c-67.66,8.21-136.07,8.21-203.74,0 c-3.46-0.44-6.83,1.31-8.47,4.39c-15.38,29.78-23.31,62.85-23.11,96.37c-1.16,52.13,18.77,102.52,55.28,139.75 c1.55,1.45,3.6,2.26,5.71,2.26h144.9c2.12,0,4.17-0.81,5.72-2.26C434.67,572.69,454.61,522.3,453.44,470.17L453.44,470.17z  M276.91,115.29h86.17l18.71-90.77c1.12-4.38,0.42-9.03-1.95-12.88c-2.2-3.56-5.75-6.08-9.84-6.95c-13.1-2.61-26.39-4.15-39.73-4.61 c-4.02-0.41-8.02,0.99-10.91,3.82c-3.96,4.27-9.32,6.97-15.11,7.62c-5.78,0.65-11.61-0.81-16.42-4.09 c-3.76-2.94-8.55-4.25-13.3-3.61c-1.55,0.27-3.08,0.57-4.59,0.89c-4.07,0.89-7.6,3.4-9.79,6.95c-2.34,3.75-3.06,8.29-2.02,12.59 L276.91,115.29z"/>
</svg>