<svg xmlns="http://www.w3.org/2000/svg" viewBox="0 0 640 640">
<path d="M235.82,145.19c0.01-7.68,6.23-13.91,13.91-13.91h140.52c7.68,0,13.91,6.23,13.91,13.91c0,7.68-6.23,13.91-13.91,13.91 H249.74C242.05,159.1,235.83,152.87,235.82,145.19z M356.46,114.59L374.68,7.13V7.12c-17.8-4.94-36.21-7.33-54.69-7.11 c-3.76,0-7.48,0.09-11.12,0.26c-0.42,0.49-0.9,1.09-1.27,1.56c-2.38,3.9-6.28,6.63-10.76,7.53c-4.78,0.13-9.42-1.61-12.94-4.84 c-0.54-0.4-1.28-0.94-1.84-1.31c-5.65,0.98-11.25,2.3-16.75,3.92l18.23,107.46L356.46,114.59z M461,368.59l-72.91,245.98 c-2.21,7.32-6.71,13.75-12.84,18.32c-6.13,4.58-13.57,7.07-21.22,7.11h-68.07c-7.65-0.03-15.08-2.53-21.22-7.1 c-6.13-4.58-10.63-11-12.84-18.32l-72.91-246c-1.61-5.47-1.76-11.29-0.41-16.83c1.35-5.55,4.13-10.65,8.07-14.78l81.99-85.69v-0.01 c3.25-3.37,5.06-7.88,5.04-12.56V175.8h92.61v62.92c-0.01,4.68,1.79,9.18,5.03,12.55l81.99,85.7c3.95,4.13,6.73,9.23,8.08,14.78 C462.75,357.29,462.62,363.11,461,368.59L461,368.59z M425.36,376.06L425.36,376.06c-2.12-2.17-5.25-3.02-8.18-2.21 c-27.26,7.48-167.11,7.48-194.37,0c-2.93-0.81-6.05,0.04-8.18,2.2c-2.12,2.17-2.9,5.31-2.03,8.22l65.89,221.94v0.01 c1.05,3.54,4.31,5.97,8,5.97h67c3.69-0.01,6.95-2.43,8-5.97l65.89-221.94l-0.01-0.01C428.26,381.36,427.48,378.22,425.36,376.06 L425.36,376.06z"/>
</svg>