<svg xmlns="http://www.w3.org/2000/svg" viewBox="0 0 640 640">
<path d="M273.65,115.48h92.69l18.45-89.53c1.19-4.66,0.44-9.6-2.09-13.69c-2.34-3.8-6.13-6.48-10.49-7.42 c-13.67-2.72-27.55-4.33-41.49-4.81c-4.28-0.26-8.49,1.21-11.66,4.11c-4.06,4.39-9.57,7.17-15.51,7.84 c-5.94,0.66-11.93-0.83-16.86-4.21c-4-3.15-9.11-4.54-14.15-3.84c-1.64,0.29-3.25,0.61-4.84,0.93c-4.33,0.95-8.08,3.62-10.4,7.4 c-2.49,3.99-3.26,8.82-2.15,13.39L273.65,115.48z M394.86,132.16H245.14c-7.67,0.02-13.87,6.24-13.87,13.91 c0,7.67,6.2,13.89,13.87,13.91h149.72c7.66-0.02,13.87-6.24,13.87-13.91C408.73,138.41,402.52,132.19,394.86,132.16L394.86,132.16z  M252.31,176.67h135.36v395.65c0,24.18-12.9,46.52-33.84,58.61c-20.94,12.09-46.74,12.09-67.68,0 c-20.94-12.09-33.84-34.43-33.84-58.61V176.67z M280.12,572.32L280.12,572.32c0.01,14.25,7.6,27.41,19.94,34.53 c12.33,7.12,27.53,7.12,39.87,0c12.33-7.12,19.93-20.29,19.93-34.53V328.48c0-4.6-3.73-8.34-8.34-8.34h-63.05 c-4.61,0-8.34,3.74-8.34,8.34L280.12,572.32z"/>
</svg>