<svg xmlns="http://www.w3.org/2000/svg" viewBox="0 0 640 640">
<path d="M458.9,323.27L382,243.43v-56.72h4.23h-0.01c11.25,0,21.64-6,27.26-15.73c5.62-9.74,5.62-21.74,0-31.47 c-5.62-9.74-16.01-15.74-27.26-15.74h-12.73l17.32-102.22c0.85-5.02-2.03-9.92-6.82-11.65c-20.62-6.9-42.26-10.23-64-9.86 c-4.51,0-9.02,0.11-13.32,0.32h0.01c-4.49,0.49-8.57,2.86-11.23,6.51c-3.67-3.01-8.41-4.38-13.11-3.78 c-8.96,1.5-17.77,3.78-26.33,6.82c-4.79,1.72-7.66,6.62-6.82,11.65l17.32,102.22h-12.74c-11.24,0-21.63,6-27.25,15.74 c-5.62,9.74-5.62,21.73,0,31.47c5.62,9.74,16.01,15.73,27.25,15.73h4.28l0.27,55.78l-77.21,80.78v0.01 c-5.97,6.23-10.18,13.92-12.23,22.3c-2.04,8.38-1.84,17.15,0.59,25.43l68.82,231.86v-0.01c3.18,10.71,9.73,20.1,18.66,26.79 c8.94,6.68,19.79,10.32,30.96,10.35h64.2c11.17-0.03,22.02-3.67,30.96-10.35c8.94-6.69,15.49-16.08,18.66-26.79L470.55,371V371 c2.43-8.28,2.63-17.05,0.58-25.43C469.09,337.19,464.87,329.5,458.9,323.27L458.9,323.27z M243.29,155.23 c0.01-5.79,4.7-10.48,10.49-10.49h132.45c5.79,0,10.49,4.7,10.49,10.49c0,5.79-4.7,10.49-10.49,10.49H253.78 C247.99,165.71,243.29,161.02,243.29,155.23z M450.41,365.02l-68.72,231.86c-1.92,6.36-5.83,11.95-11.15,15.93 c-5.32,3.99-11.78,6.16-18.43,6.21h-64.2c-6.65-0.05-13.11-2.22-18.43-6.21c-5.33-3.98-9.23-9.56-11.15-15.93L189.6,365.02 c-1.4-4.71-1.52-9.7-0.36-14.48c1.16-4.77,3.57-9.15,6.97-12.69l77.32-80.79c3.48-3.69,5.43-8.56,5.46-13.64v-56.72h82.04v56.72 c0.03,5.07,1.98,9.95,5.46,13.64l77.32,80.78v0.01c3.41,3.54,5.81,7.92,6.97,12.69C451.93,355.32,451.8,360.31,450.41,365.02 L450.41,365.02z"/>
</svg>