<svg xmlns="http://www.w3.org/2000/svg" viewBox="0 0 640 640">
<path d="M403.14,179.61v377.25c0,29.7-15.85,57.15-41.57,72c-25.73,14.85-57.42,14.85-83.14,0c-25.72-14.85-41.57-42.3-41.57-72 V179.61c-9.27-3.65-16.29-11.43-18.98-21.02c-2.68-9.59-0.73-19.89,5.3-27.82c6.03-7.93,15.41-12.59,25.37-12.57h15.85l-16.6-80.66 c-1.72-7.11-0.5-14.62,3.4-20.81c3.75-6.07,9.8-10.36,16.78-11.89c1.59-0.32,3.18-0.64,4.88-0.85l0.01,0.01 c7.62-1.15,15.38,0.8,21.55,5.41c5.29,3.56,12.37,2.8,16.78-1.8c5.02-5.29,12.15-8.06,19.43-7.54c13.91,0.47,27.76,2.06,41.41,4.78 c6.97,1.53,13.02,5.82,16.78,11.89c3.9,6.23,5.13,13.77,3.4,20.92l-16.6,80.55h15.84c9.96-0.02,19.35,4.64,25.38,12.57 c6.03,7.94,7.98,18.23,5.3,27.82C419.43,168.19,412.41,175.97,403.14,179.61L403.14,179.61z M237.94,150.05 c0.01,5.86,4.76,10.61,10.62,10.62h142.89c5.86,0,10.62-4.75,10.62-10.62c0-5.87-4.76-10.62-10.62-10.62H248.55 C242.7,139.44,237.94,144.19,237.94,150.05z M381.9,181.95H258.1v374.92v-0.01c0,22.12,11.8,42.55,30.95,53.61 c19.15,11.05,42.75,11.05,61.9,0c19.15-11.06,30.95-31.49,30.95-53.61V181.95z"/>
</svg>