<svg xmlns="http://www.w3.org/2000/svg" viewBox="0 0 16 16">
<path d="M15 11h-2q-0.406 0-0.703-0.297t-0.297-0.703v-9q0-0.406 0.297-0.703t0.703-0.297h2q0.422 0 0.711 0.297t0.289 0.703v9q0 0.422-0.289 0.711t-0.711 0.289zM10 16h-9q-0.406 0-0.703-0.297t-0.297-0.703v-2q0-0.422 0.297-0.711t0.703-0.289h9q0.422 0 0.711 0.289t0.289 0.711v2q0 0.406-0.289 0.703t-0.711 0.297zM9 13h-7q-0.406 0-0.703 0.289t-0.297 0.711 0.297 0.711 0.703 0.289h7q0.422 0 0.711-0.289t0.289-0.711-0.289-0.711-0.711-0.289zM9 4h-1q-1.391 0-2.461 0.852t-1.414 2.148h1.703q0.172 0.156 0.172 0.359t-0.172 0.359l-2.422 3.125q-0.172 0.156-0.406 0.156t-0.406-0.156l-2.422-3.125q-0.172-0.156-0.172-0.359t0.172-0.359h1.922q0.359-2.141 2.023-3.57t3.883-1.43h1q0.422 0 0.711 0.289t0.289 0.711-0.289 0.711-0.711 0.289z"/>
</svg>
