<svg xmlns="http://www.w3.org/2000/svg" viewBox="0 0 16 16">
<path d="M14 16h-12q-0.828 0-1.414-0.586t-0.586-1.414v-2q0-0.828 0.586-1.414t1.414-0.586h2v-3.281q-0.453-0.266-0.727-0.719t-0.273-1q0-0.828 0.586-1.414t1.414-0.586 1.414 0.586 0.586 1.414q0 0.547-0.273 1t-0.727 0.719v3.281h8q0.828 0 1.414 0.586t0.586 1.414v2q0 0.828-0.586 1.414t-1.414 0.586zM3.008 12q-0.414 0-0.711 0.297t-0.297 0.711 0.297 0.703 0.711 0.289 0.703-0.289 0.289-0.703-0.289-0.711-0.703-0.297zM7.008 12q-0.414 0-0.711 0.297t-0.297 0.711 0.289 0.703 0.711 0.289 0.711-0.289 0.289-0.703-0.289-0.711-0.703-0.297zM13 12h-2q-0.422 0-0.711 0.297t-0.289 0.711 0.289 0.703 0.711 0.289h2q0.406 0 0.703-0.289t0.297-0.703-0.297-0.711-0.703-0.297zM9 5q-0.422 0-0.711-0.289t-0.289-0.711q-0.297-0.875-1.148-1.438t-1.852-0.563-1.852 0.563-1.148 1.438q0 0.422-0.297 0.711t-0.703 0.289-0.703-0.289-0.297-0.711q0-0.953 0.789-1.898t1.953-1.523 2.258-0.578 2.258 0.578 1.953 1.523 0.789 1.898q0 0.422-0.289 0.711t-0.711 0.289z"/>
</svg>