<svg xmlns="http://www.w3.org/2000/svg" viewBox="0 0 16 16">
<path d="M15 16h-1v-7q0-0.406-0.297-0.703t-0.703-0.297h-10q-0.422 0-0.711 0.297t-0.289 0.703v7h-1q-0.406 0-0.703-0.297t-0.297-0.703v-14q0-0.406 0.297-0.703t0.703-0.297h13l2 2v13q0 0.406-0.297 0.703t-0.703 0.297zM12 1h-10v4q0 0.422 0.289 0.711t0.711 0.289h8q0.406 0 0.703-0.289t0.297-0.711v-4zM8 2h2v3h-2v-3zM3.5 9h9q0.203 0 0.352 0.148t0.148 0.352-0.148 0.352-0.352 0.148h-9q-0.203 0-0.352-0.148t-0.148-0.352 0.148-0.352 0.352-0.148zM3.5 12h9q0.203 0 0.352 0.148t0.148 0.352-0.148 0.352-0.352 0.148h-9q-0.203 0-0.352-0.148t-0.148-0.352 0.148-0.352 0.352-0.148zM3.5 15h9q0.203 0 0.352 0.148t0.148 0.352-0.148 0.352-0.352 0.148h-9q-0.203 0-0.352-0.148t-0.148-0.352 0.148-0.352 0.352-0.148z"/>
</svg>