<svg xmlns="http://www.w3.org/2000/svg" viewBox="0 0 16 16">
<path d="M8 16q-1.313-0.656-2.375-1.391t-1.859-1.406-1.398-1.594-1-1.602-0.664-1.789-0.406-1.82-0.211-2.039-0.078-2.078-0.008-2.281q0 0.406 1.172 0.703t2.828 0.297 2.828-0.297 1.172-0.703q0 0.406 1.172 0.703t2.828 0.297 2.828-0.297 1.172-0.703q0 1.531-0.008 2.281t-0.078 2.078-0.211 2.039-0.406 1.82-0.664 1.789-1 1.602-1.398 1.594-1.859 1.406-2.375 1.391zM8 2v0q0 0.406-0.883 0.703t-2.117 0.297q-0.844 0-1.672-0.141t-1.328-0.375q0 1.234 0.031 1.984t0.148 1.789 0.352 1.711 0.672 1.516 1.070 1.469 1.57 1.297 2.156 1.25v-11.5zM8 0v0 0z"/>
</svg>