<svg xmlns="http://www.w3.org/2000/svg" viewBox="0 0 16 16">
<path d="M12 16h-8q-0.406 0-0.703-0.289t-0.297-0.711v-14q0-0.422 0.297-0.711t0.703-0.289h8q0.422 0 0.711 0.289t0.289 0.711v14q0 0.422-0.289 0.711t-0.711 0.289zM8.008 14q0.414 0 0.703-0.289t0.289-0.703-0.289-0.711-0.703-0.297-0.711 0.297-0.297 0.711 0.297 0.703 0.711 0.289zM12 1.5q0-0.203-0.148-0.352t-0.352-0.148h-7q-0.203 0-0.352 0.148t-0.148 0.352v1q0 0.203 0.148 0.352t0.352 0.148h7q0.203 0 0.352-0.148t0.148-0.352v-1zM12 4.5q0-0.203-0.148-0.352t-0.352-0.148h-7q-0.203 0-0.352 0.148t-0.148 0.352v1q0 0.203 0.148 0.352t0.352 0.148h7q0.203 0 0.352-0.148t0.148-0.352v-1zM12 7.5q0-0.203-0.148-0.352t-0.352-0.148h-7q-0.203 0-0.352 0.148t-0.148 0.352v1q0 0.203 0.148 0.352t0.352 0.148h7q0.203 0 0.352-0.148t0.148-0.352v-1z"/>
</svg>