<svg xmlns="http://www.w3.org/2000/svg" viewBox="0 0 16 16">
<path d="M15.9 6.7c0 0.1 0 0.2-0.1 0.3s-0.2 0.3-0.3 0.5c-0.3 0.5-0.7 1.2-0.9 1.5s-0.6 0.8-0.8 1c-0.1 0.1-0.5 0.5-1 0.9-0.6 0.5-1.1 1-1.3 1.2s-0.6 0.4-1.1 0.4h-3.6c-0.7 0-1.1 0.4-1.4 0.7l0.7 0.7-1.9 1.8-4.2-4.4 1.9-1.8 0.6 0.7c0 0 0.6-0.6 1.7-1.9 0.3-0.3 0.7-0.4 1.1-0.4h1.8c0.3 0 0.6 0.1 0.8 0.4 0.3 0.3 0.7 0.5 1.1 0.5h1.7c0.3 0 0.5 0.1 0.7 0.3 0 0 0 0.1 0.1 0.1v0c0 0.1 0.1 0.2 0.1 0.3 0 0.4-0.4 0.8-0.8 0.8h-3.8c-0.1 0-0.2 0.1-0.2 0.2s0.1 0.2 0.2 0.2h3.9c0.6 0 1.1-0.5 1.1-1.1v0c0-0.2 0-0.3-0.1-0.5l0.9-0.6c0.4-0.3 0.7-0.6 1-1.1 0.1-0.3 0.6-1.1 1.7-1.1 0.3 0 0.5 0.1 0.6 0.2-0.2 0-0.2 0.1-0.2 0.2v0zM11.5 9.1v0 0 0zM12.8 4.5c-0.1 0.2-0.1 0.4-0.2 0.5l0.6 0.9-0.7 0.7-0.9-0.6c-0.2 0.1-0.3 0.2-0.5 0.2l-0.2 1.1h-1l-0.2-1.1c-0.2 0-0.3-0.1-0.5-0.2l-0.9 0.6-0.6-0.7 0.5-0.9c-0.1-0.1-0.2-0.3-0.2-0.5l-1-0.2v-1l1-0.2c0.1-0.2 0.1-0.4 0.2-0.5l-0.5-0.9 0.6-0.7 0.9 0.6c0.2-0.1 0.3-0.2 0.5-0.2l0.2-1.1h1l0.2 1.1c0.2 0.1 0.4 0.1 0.5 0.2l0.9-0.6 0.7 0.7-0.6 0.9c0.1 0.2 0.2 0.3 0.2 0.5l1.1 0.2v1l-1.1 0.2zM11.4 3.8c0-0.6-0.4-1-1-1s-1 0.4-1 1 0.4 1 1 1 1-0.4 1-1z"/>
</svg>