<svg xmlns="http://www.w3.org/2000/svg" viewBox="0 0 16 16">
<path d="M15 16h-5q-0.422 0-0.711-0.297t-0.289-0.703v-14q0-0.406 0.289-0.703t0.711-0.297h5q0.406 0 0.703 0.297t0.297 0.703v14q0 0.422-0.289 0.711t-0.711 0.289zM10 13.008q0 0.414 0.289 0.703t0.703 0.289 0.711-0.289 0.297-0.703-0.297-0.711-0.703-0.297-0.703 0.297-0.297 0.711zM15 1.5q0-0.203-0.148-0.352t-0.352-0.148h-4q-0.203 0-0.352 0.148t-0.148 0.352v1q0 0.203 0.148 0.352t0.352 0.148h4q0.203 0 0.352-0.148t0.148-0.352v-1zM15 4.5q0-0.203-0.148-0.352t-0.352-0.148h-4q-0.203 0-0.352 0.148t-0.148 0.352v1q0 0.203 0.148 0.352t0.352 0.148h4q0.203 0 0.352-0.148t0.148-0.352v-1zM15 7.5q0-0.203-0.148-0.352t-0.352-0.148h-4q-0.203 0-0.352 0.148t-0.148 0.352v1q0 0.203 0.148 0.352t0.352 0.148h4q0.203 0 0.352-0.148t0.148-0.352v-1zM6 16h-5q-0.422 0-0.711-0.297t-0.289-0.703v-14q0-0.406 0.289-0.703t0.711-0.297h5q0.422 0 0.711 0.297t0.289 0.703v14q0 0.422-0.289 0.711t-0.711 0.289zM1 13.008q0 0.414 0.289 0.703t0.711 0.289 0.711-0.289 0.289-0.703-0.289-0.711-0.703-0.297-0.711 0.297-0.297 0.711zM6 1.5q0-0.203-0.148-0.352t-0.352-0.148h-4q-0.203 0-0.352 0.148t-0.148 0.352v1q0 0.203 0.148 0.352t0.352 0.148h4q0.203 0 0.352-0.148t0.148-0.352v-1zM6 4.5q0-0.203-0.148-0.352t-0.352-0.148h-4q-0.203 0-0.352 0.148t-0.148 0.352v1q0 0.203 0.148 0.352t0.352 0.148h4q0.203 0 0.352-0.148t0.148-0.352v-1zM6 7.5q0-0.203-0.148-0.352t-0.352-0.148h-4q-0.203 0-0.352 0.148t-0.148 0.352v1q0 0.203 0.148 0.352t0.352 0.148h4q0.203 0 0.352-0.148t0.148-0.352v-1z"/>
</svg>