<svg xmlns="http://www.w3.org/2000/svg" viewBox="0 0 16 16">
<path d="M1.37,10.01C1.1,9.55,0.88,8.96,0.7,8.22C0.53,7.48,0.39,6.87,0.3,6.4C0.2,5.92,0.13,5.24,0.09,4.36 C0.04,3.47,0.01,2.78,0.01,2.28C0,1.78,0,1.02,0,0c0,0.27,0.39,0.51,1.17,0.7C1.95,0.9,2.9,1,4,1s2.05-0.1,2.83-0.3 C7.61,0.51,8,0.27,8,0c0,0.27,0.39,0.51,1.17,0.7c0.44,0.11,0.93,0.19,1.47,0.24L6,5l1,4l-3.72,3.72c-0.33-0.34-0.64-0.7-0.91-1.11 C1.97,10.99,1.63,10.46,1.37,10.01z M14.83,0.7c-0.75,0.19-1.65,0.29-2.7,0.29L9,6l1,4l-6.04,3.36c0.49,0.4,1.04,0.82,1.67,1.25 C6.33,15.1,7.12,15.56,8,16h0c0.88-0.44,1.67-0.9,2.38-1.39s1.33-0.96,1.86-1.41c0.53-0.45,1-0.98,1.4-1.59 c0.4-0.61,0.73-1.15,1-1.6c0.27-0.45,0.49-1.05,0.66-1.79c0.18-0.74,0.31-1.35,0.41-1.82s0.16-1.15,0.21-2.04 c0.05-0.89,0.07-1.58,0.08-2.08C16,1.78,16,1.02,16,0C16,0.27,15.61,0.51,14.83,0.7z"/>
</svg>