<svg xmlns="http://www.w3.org/2000/svg" viewBox="0 0 16 16">
<path d="M12 12.594v1.906q0 0.625-0.438 1.063t-1.063 0.438-1.063-0.438-0.438-1.063q0 0.625-0.438 1.063t-1.063 0.438-1.063-0.438-0.438-1.063q0 0.625-0.438 1.063t-1.063 0.438-1.063-0.438-0.438-1.063v-1.906q-1.391-0.984-2.195-2.445t-0.805-3.148q0-1.422 0.594-2.719t1.602-2.234 2.391-1.492 2.914-0.555 2.914 0.555 2.391 1.492 1.602 2.234 0.594 2.719q0 1.688-0.805 3.156t-2.195 2.438zM4.5 5q-0.625 0-1.063 0.438t-0.438 1.063 0.438 1.063 1.063 0.438 1.063-0.438 0.438-1.063-0.438-1.063-1.063-0.438zM6 11h3l-1.5-2zM10.5 5q-0.625 0-1.063 0.438t-0.438 1.063 0.438 1.063 1.063 0.438 1.063-0.438 0.438-1.063-0.438-1.063-1.063-0.438z"/>
</svg>