<svg xmlns="http://www.w3.org/2000/svg" viewBox="0 0 16 16">
<path d="M16 13.5q0 0.203-0.148 0.352t-0.352 0.148-0.352-0.148-0.148-0.352v-6.578l-5.516 2.766q-0.625 0.313-1.484 0.313t-1.484-0.313l-5.906-2.953q-0.609-0.313-0.609-0.742t0.609-0.727l5.906-2.953q0.625-0.313 1.484-0.313t1.484 0.313l5.906 2.953q0.531 0.266 0.594 0.656 0.016 0.016 0.016 0.063v7.516zM9.984 10.688l3.016-1.516v2.203q0 0.672-1.461 1.148t-3.539 0.477-3.539-0.477-1.461-1.148v-2.203l3.016 1.516q0.625 0.313 1.984 0.313t1.984-0.313z"/>
</svg>