<svg xmlns="http://www.w3.org/2000/svg" viewBox="0 0 16 16">
<path d="M15.844 15.047l-0.797 0.797q-0.156 0.156-0.383 0.156t-0.398-0.156l-2.797-2.813-1.828 1.828q-0.141 0.156-0.359 0.156t-0.375-0.156l-0.75-0.75q-0.156-0.156-0.156-0.375t0.156-0.359l1.328-1.328-9.234-9.234q-0.063-0.078-0.117-0.164t-0.078-0.148-0.039-0.148-0.016-0.133v-1.719q0-0.203 0.148-0.352t0.352-0.148h1.727t0.125 0.016 0.148 0.039 0.148 0.078 0.164 0.117l9.234 9.234 1.328-1.328q0.141-0.156 0.359-0.156t0.375 0.156l0.75 0.75q0.156 0.156 0.156 0.375t-0.156 0.375l-1.828 1.813 2.813 2.797q0.156 0.172 0.156 0.398t-0.156 0.383z"/>
</svg>