<svg xmlns="http://www.w3.org/2000/svg" viewBox="0 0 16 16">
<path d="M14 16h-4q-0.828 0-1.414-0.586t-0.586-1.414v-4q0-0.828 0.586-1.414t1.414-0.586h4q0.828 0 1.414 0.586t0.586 1.414v4q0 0.828-0.586 1.414t-1.414 0.586zM14 10.5q0-0.203-0.148-0.352t-0.352-0.148h-3q-0.203 0-0.352 0.148t-0.148 0.352v3q0 0.203 0.148 0.352t0.352 0.148h3q0.203 0 0.352-0.148t0.148-0.352v-3zM14 7q-0.422 0-0.711-0.289t-0.289-0.711 0.297-0.711 0.711-0.289 0.703 0.297 0.289 0.711-0.289 0.703-0.711 0.289zM14 3q-0.422 0-0.711-0.289t-0.289-0.711 0.297-0.711 0.711-0.289 0.703 0.289 0.289 0.711-0.289 0.711-0.711 0.289zM10 3q-0.422 0-0.711-0.289t-0.289-0.711 0.289-0.711 0.711-0.289 0.711 0.289 0.289 0.703-0.289 0.711-0.711 0.297zM4 8q-1.656 0-2.828-1.172t-1.172-2.828 1.172-2.828 2.828-1.172 2.828 1.172 1.172 2.828-1.172 2.828-2.828 1.172zM2.008 9q0.414 0 0.703 0.289t0.289 0.711-0.289 0.711-0.703 0.289-0.711-0.289-0.297-0.711 0.297-0.711 0.711-0.289zM2.008 13q0.414 0 0.703 0.297t0.289 0.711-0.289 0.703-0.703 0.289-0.711-0.289-0.297-0.703 0.297-0.711 0.711-0.297zM6.008 13q0.414 0 0.703 0.297t0.289 0.711-0.289 0.703-0.703 0.289-0.711-0.289-0.297-0.703 0.297-0.711 0.711-0.297z"/>
</svg>