
<svg version="1.1" xmlns="http://www.w3.org/2000/svg" width="16" height="16" viewBox="0 0 16 16">
<title>treediagram</title>
<path d="M15 16h-1q-0.422 0-0.711-0.289t-0.289-0.711v-1q0-0.406 0.289-0.703t0.711-0.297v-4h-5v4q0.406 0 0.703 0.297t0.297 0.703v1q0 0.422-0.297 0.711t-0.703 0.289h-1q-0.422 0-0.711-0.289t-0.289-0.711v-1q0-0.406 0.289-0.703t0.711-0.297v-4h-5v4q0.406 0 0.703 0.297t0.297 0.703v1q0 0.422-0.297 0.711t-0.703 0.289h-1q-0.422 0-0.711-0.289t-0.289-0.711v-1q0-0.406 0.289-0.703t0.711-0.297v-4.5q0-0.203 0.148-0.352t0.352-0.148h5.5v-3h-1q-0.422 0-0.711-0.289t-0.289-0.711v-3q0-0.406 0.289-0.703t0.711-0.297h3q0.406 0 0.703 0.297t0.297 0.703v3q0 0.422-0.297 0.711t-0.703 0.289h-1v3h5.5q0.203 0 0.352 0.148t0.148 0.352v4.5q0.406 0 0.703 0.297t0.297 0.703v1q0 0.422-0.297 0.711t-0.703 0.289z"></path>
</svg>
