<svg xmlns="http://www.w3.org/2000/svg" viewBox="0 0 16 16">
<path d="M12.063 8.047q1.016 0.75 2.477 2.18t1.461 1.773q0 0.422-0.242 0.711t-0.758 0.289h-1.656q-0.469 0-0.844-0.391-0.938-1-1.922-1.922t-1.578-1.313v3.125q0 0.203-0.148 0.352t-0.352 0.148h-2q-0.359 0-1.039-0.547t-1.461-1.453q-1.125-1.297-2.563-3.781t-1.438-3.219q0-0.547 0.242-0.773t0.758-0.227h1.656q0.219 0 0.461 0.188t0.367 0.438q0.031 0.078 0.313 0.664t0.359 0.742l0.328 0.656t0.383 0.727 0.352 0.586 0.406 0.609 0.375 0.453v-4.563q0-0.203 0.148-0.352t0.352-0.148h2q0.203 0 0.352 0.148t0.148 0.352v3.563q1.594-1.078 3.5-3.672 0.125-0.156 0.367-0.273t0.477-0.117h1.656q0.547 0 0.773 0.25t0.227 0.75q0 0.688-1.273 1.914t-2.664 2.133z"/>
</svg>