<svg xmlns="http://www.w3.org/2000/svg" viewBox="0 0 16 16">
<path d="M9 15q-1.625 0-3.008-0.805t-2.188-2.188-0.805-3.008q0-1.656 1.172-2.828t2.828-1.172q0.531 0 1.219 0.297t1.234 0.898 0.547 1.305q0 0.922-0.172 1.313 0.516-0.234 0.844-0.727t0.328-1.086q0-1.656-1.172-2.828t-2.828-1.172q-1.359 0-2.508 0.672t-1.82 1.82-0.672 2.508q0 1.953 0.586 3.563t1.414 2.438q-2.172-0.719-3.086-2.172t-0.914-3.828q0-1.422 0.555-2.719t1.492-2.234 2.234-1.492 2.719-0.555q1.625 0 3.008 0.805t2.188 2.188 0.805 3.008q0 1.656-1.172 2.828t-2.828 1.172q-0.531 0-1.219-0.297t-1.234-0.898-0.547-1.305q0-0.922 0.172-1.313-0.516 0.234-0.844 0.727t-0.328 1.086q0 1.656 1.172 2.828t2.828 1.172q1.359 0 2.508-0.672t1.82-1.82 0.672-2.508q0-1.938-0.586-3.555t-1.414-2.445q2.172 0.719 3.086 2.172t0.914 3.828q0 1.422-0.555 2.719t-1.492 2.234-2.234 1.492-2.719 0.555z"/>
</svg>