<svg xmlns="http://www.w3.org/2000/svg" viewBox="0 0 16 16">
<path d="M16 15q-0.172-0.078-0.477-0.227t-1.234-0.656-1.844-1.055-2.148-1.406-2.297-1.734q-1.063 0.875-2.281 1.727t-2.188 1.43-1.797 1.031-1.273 0.672-0.461 0.219q0.156-0.141 0.438-0.398t1.070-1.055 1.5-1.578 1.555-1.867 1.422-2.023q-2.656-2.672-4.891-5.938l-0.094-0.141q0.125 0.125 0.367 0.352t1 0.844 1.539 1.141 1.906 1.109 2.188 0.914q1.063-0.328 2.172-0.891t1.938-1.148 1.508-1.117 1.023-0.859l0.359-0.344q-0.234 0.359-0.672 0.969t-1.742 2.219-2.57 2.891q0.578 0.938 1.406 2t1.602 1.906 1.461 1.539 1.102 1.086z"/>
</svg>